<svg width="164" height="115" viewBox="0 0 164 115" fill="none" xmlns="http://www.w3.org/2000/svg">
<path d="M66.6168 26.7557C69.7377 24.5506 72.9258 23.6441 76.1811 22.8601C84.1681 20.9245 92.3901 20.7775 100.578 21.4881C122.962 23.4726 140.178 32.0723 153.266 45.0086C169.005 60.5419 167.663 83.8175 147.729 98.1993C132.527 109.151 114.371 114.688 93.1284 114.982C74.3353 115.252 56.5491 112.14 39.5682 106.382C18.2247 99.1303 5.74078 86.7085 1.5459 70.0481C-4.15912 47.2626 6.00925 28.5932 30.6751 14.0889C42.2865 7.25324 55.3409 2.72064 70.1069 0.956603C89.9067 -1.41995 108.767 0.540094 126.184 7.86576C132.929 10.7078 138.97 14.5054 145.111 18.0335C147.527 19.43 149.34 21.3411 148.064 24.4526C146.017 23.5951 144.339 22.9336 142.695 22.2231C135.648 19.1605 128.902 15.5834 121.486 13.0599C92.8599 3.35766 65.308 4.48468 39.2662 18.2295C24.0304 26.2657 14.0634 36.9479 11.0767 50.4232C7.01602 68.5781 16.3119 90.4571 44.6692 99.6693C62.9253 105.598 81.8525 108.612 101.719 106.774C120.076 105.059 135.715 99.0078 146.084 87.566C156.622 75.9283 156.79 63.3105 146.621 51.6727C134.137 37.4134 115.881 29.1812 92.088 28.5197C85.1749 28.3237 78.2282 28.0052 71.315 27.6867C69.9727 27.6132 68.6639 27.1967 66.6503 26.7802L66.6168 26.7557Z" fill="#DD2935"/>
<path d="M69.4506 26.3857C69.372 26.3683 69.2911 26.3501 69.2081 26.3312C71.529 25.0943 73.9113 24.4354 76.4152 23.8323L76.4166 23.832C84.2634 21.9304 92.3686 21.7795 100.491 22.4843C122.647 24.4489 139.644 32.9506 152.563 45.7198L152.564 45.7203C160.24 53.2961 163.71 62.7113 162.879 71.9461C162.048 81.18 156.907 90.3445 147.144 97.3879C132.132 108.203 114.183 113.691 93.1145 113.982H93.114C74.4437 114.25 56.771 111.159 39.8899 105.436C18.7803 98.2629 6.60795 86.0551 2.51596 69.8052C-0.282632 58.6279 0.819444 48.5194 5.60625 39.429C10.4047 30.3163 18.9508 22.1433 31.182 14.9509L31.1824 14.9507C42.6737 8.18569 55.5957 3.69732 70.2255 1.94954L70.2261 1.94948C89.8843 -0.410083 108.565 1.54019 125.796 8.78754C131.169 11.0514 136.08 13.9233 141.021 16.8123C142.214 17.5099 143.409 18.2086 144.612 18.8999C145.767 19.5676 146.64 20.2852 147.104 21.0965C147.417 21.6438 147.576 22.2888 147.43 23.1056C146.946 22.9059 146.486 22.7171 146.04 22.5347C145.002 22.109 144.048 21.7185 143.093 21.3058C140.858 20.3343 138.63 19.2995 136.389 18.2579C131.661 16.0616 126.87 13.8358 121.808 12.1132L121.807 12.1128C92.952 2.33301 65.1117 3.45753 38.7994 17.3451C23.4101 25.4623 13.1729 36.3452 10.1005 50.2063C5.91855 68.9065 15.5551 91.2627 44.3602 100.62L44.3603 100.62C62.7163 106.582 81.7817 109.623 101.812 107.77L101.812 107.77C120.317 106.041 136.23 99.928 146.825 88.2376L146.826 88.2372C152.213 82.2878 155.025 76.0003 155.118 69.6339C155.21 63.2655 152.579 56.9711 147.374 51.0148L147.374 51.014C134.676 36.5108 116.139 28.1881 92.1164 27.5201C85.215 27.3244 78.2786 27.0065 71.3657 26.688C70.7786 26.6555 70.1805 26.5474 69.4506 26.3857Z" fill="#DD2935" stroke="black" stroke-width="2"/>
</svg>
