<svg width="24" height="26" viewBox="0 0 24 26" fill="none" xmlns="http://www.w3.org/2000/svg">
<g clip-path="url(#clip0_331_7321)">
<path d="M8.61013 12.1942C8.62792 11.8873 8.65017 11.6737 8.65461 11.4602C8.77473 8.13707 9.20625 4.84508 9.8424 1.58422C9.90024 1.29506 9.96696 0.996997 10.096 0.734527C10.4207 0.0494357 11.177 -0.0528831 11.6708 0.520992C11.8621 0.743424 11.9911 1.01924 12.129 1.28171C13.428 3.75961 14.7181 6.24195 16.0171 8.7243C16.1061 8.89779 16.2129 9.06239 16.3597 9.31596C16.6043 9.16026 16.8223 9.0268 17.0403 8.88445C18.5351 7.91464 20.0298 6.94039 21.529 5.97948C21.9961 5.67697 22.5032 5.39226 23.0371 5.79264C23.6065 6.21971 23.4241 6.80248 23.2506 7.35856C22.6767 9.17806 22.0717 10.9842 21.529 12.8126C21.1776 13.9959 20.8973 15.206 20.6037 16.4071C20.4524 17.0299 20.4791 17.5904 20.9818 18.1154C21.3644 18.5158 21.6447 19.0452 21.8849 19.5523C22.4054 20.6422 22.1251 21.4296 20.9996 21.8967C19.6072 22.4751 18.2014 23.0489 16.76 23.4894C14.6781 24.1255 12.565 24.6504 10.4563 25.2021C10.1271 25.2866 9.76678 25.3044 9.42423 25.2999C8.75693 25.2866 8.32541 24.9574 8.23199 24.3035C8.13412 23.6228 8.08074 22.9199 8.12522 22.2348C8.15192 21.8122 8.10743 21.4875 7.86275 21.136C5.60284 17.9107 3.35628 14.6766 1.10526 11.4424C0.994046 11.2778 0.873932 11.1221 0.767165 10.9531C0.549181 10.6194 0.4869 10.2546 0.68264 9.89874C0.896175 9.51615 1.26986 9.36935 1.69248 9.40494C1.98609 9.43163 2.2886 9.48946 2.55997 9.59623C3.7789 10.0811 4.99338 10.5794 6.19896 11.0954C6.98637 11.4335 7.76044 11.8117 8.60568 12.1987L8.61013 12.1942ZM3.36962 11.607C3.33403 11.6471 3.30289 11.6871 3.2673 11.7271C5.29589 14.6099 7.32447 17.4926 9.41088 20.4509C11.6041 19.7569 13.7706 19.0763 15.937 18.3868C16.4086 18.2355 16.8624 18.0175 17.3473 17.9241C17.9567 17.8084 18.4416 17.5148 18.8242 17.1678C18.9488 16.5317 19.0244 15.9667 19.1757 15.4195C19.7762 13.2753 20.4035 11.1399 21.0219 9.00011C21.093 8.75988 21.1553 8.51966 21.222 8.27943C21.1731 8.25274 21.1242 8.2216 21.0752 8.19491C20.0965 8.8622 19.1178 9.5295 18.1347 10.1923C17.7654 10.4415 17.4051 10.7084 17.0047 10.9041C16.1817 11.3045 15.5189 11.1221 15.0073 10.3703C14.7848 10.0455 14.6025 9.68965 14.4201 9.33821C13.5125 7.60768 12.6139 5.86826 11.7064 4.13774C11.5996 3.92865 11.4617 3.73736 11.266 3.41706C11.2081 3.67953 11.177 3.79075 11.1592 3.90196C10.7188 6.61564 10.3896 9.34266 10.314 12.0964C10.3006 12.519 10.314 12.9416 10.2606 13.3553C10.1583 14.1072 9.57104 14.4675 8.8548 14.2317C8.59678 14.1472 8.36545 13.9959 8.12078 13.8803C6.53706 13.124 4.95334 12.3633 3.36962 11.607ZM9.69115 21.9457C9.63776 22.5774 9.63776 23.1023 9.8424 23.7029C13.468 22.8621 16.978 21.7855 20.4658 20.313C20.1499 19.7881 19.8696 19.3165 19.5582 18.7916C16.2751 20.055 13.0721 21.3006 9.69115 21.9457Z" fill="white"/>
</g>
<defs>
<clipPath id="clip0_331_7321">
<rect width="22.8571" height="25.1482" fill="white" transform="translate(0.571289 0.142857)"/>
</clipPath>
</defs>
</svg>
