<svg width="26" height="20" viewBox="0 0 26 20" fill="none" xmlns="http://www.w3.org/2000/svg">
<path d="M25.7432 15.1253C25.5249 13.8815 25.0963 12.4357 24.7729 11.1999C24.0532 8.45371 22.9535 3.77712 21.4009 1.4994C20.8025 0.619009 20.382 0.34439 19.2499 0.409007C18.975 0.433238 18.692 0.497854 18.4089 0.554393C14.01 1.36209 8.42233 2.64634 4.31448 4.34251C3.48159 4.68175 2.3495 4.95637 2.25246 6.01445C2.13117 7.49255 2.25246 9.42296 2.30098 10.9172C2.38993 13.2999 2.60826 16.0784 3.10961 18.4127C3.23091 18.97 3.4735 19.5435 4.11232 19.6C8.10696 19.1961 12.0854 18.5419 16.072 17.9927C18.6515 17.6292 21.3443 17.4111 23.8834 16.7973C24.2554 16.7003 25.4117 16.4177 25.6381 16.1592C25.8726 15.8765 25.7999 15.4565 25.7432 15.1253ZM4.53281 5.6833C5.12311 5.41676 5.98026 5.19868 6.61099 5.00483C10.2741 3.87405 14.2849 2.93711 18.0451 2.19403C18.417 2.12133 18.789 2.02441 19.1691 2.03249C18.4009 3.71251 17.6407 5.4006 16.9534 7.11293C16.0882 9.25334 15.3847 11.4503 14.4466 13.5503C13.8806 13.2192 13.3388 12.8072 12.797 12.4195C9.88596 10.3357 7.06383 8.13063 4.363 5.7883C4.40343 5.72368 4.46812 5.70753 4.53281 5.6833ZM3.37646 6.92716L8.7943 11.523C7.74308 12.678 6.75655 13.8895 5.86705 15.1657C5.34144 15.9169 4.90478 16.7246 4.31448 17.4192C3.77269 13.9542 3.53819 10.4407 3.37646 6.92716ZM5.62446 18.0734C6.98297 16.1107 8.31721 14.1319 9.85361 12.2984C11.1879 13.1707 12.4493 14.1884 13.7836 15.0849C15.1663 15.8038 15.6434 14.6811 16.1367 13.6311C16.4359 13.0091 16.6785 12.363 16.9453 11.733L22.9535 15.3273L5.62446 18.0734ZM17.3982 10.5376C18.2957 8.0014 19.3874 5.55407 20.479 3.10673C20.5437 3.10673 20.5518 3.17135 20.5761 3.21981C21.037 4.23751 21.4898 5.66714 21.8456 6.74946C22.6543 9.23718 23.285 11.7814 23.9804 14.2934L17.3982 10.5376Z" fill="white"/>
</svg>
