<svg width="89" height="89" viewBox="0 0 89 89" fill="none" xmlns="http://www.w3.org/2000/svg">
<g clip-path="url(#clip0_331_12059)">
<path d="M24.6777 14.4013C26.0313 15.0154 28.1693 16.3955 29.2465 17.4235C29.6433 17.8014 29.7911 18.051 29.7971 18.6001C29.5849 18.9891 29.4615 19.0791 29.085 19.274C27.8072 18.9052 26.5058 17.8996 25.4728 17.08C24.8411 16.582 24.1912 16.0239 24.0976 15.1855C24.2032 14.766 24.3563 14.6622 24.6777 14.4013Z" fill="#E32824"/>
<path d="M47.8183 8.67083C47.9752 8.80791 48.2026 8.99499 48.2996 9.18739C48.4611 9.51006 48.4095 9.85228 48.2973 10.1812C47.8459 11.4955 45.7173 14.9942 44.5464 15.5644C44.3604 15.3702 44.0767 15.1568 44.0117 14.893C43.7482 13.8325 44.7601 12.225 45.2563 11.3334C45.9025 10.1657 46.4521 9.06316 47.8193 8.6745L47.8183 8.67083Z" fill="#E32824"/>
<path d="M29.8993 6.56248C30.1695 6.71847 30.4456 6.87483 30.6455 7.12041C31.4049 8.0642 34.4629 13.956 34.3931 14.8891C34.1819 15.2818 33.9759 15.445 33.6109 15.69C33.3375 15.5879 33.0895 15.485 32.8819 15.2691C32.0149 14.3717 29.0924 8.87437 29.2015 7.70656C29.2535 7.15379 29.5059 6.89958 29.8983 6.55881L29.8993 6.56248Z" fill="#E32824"/>
<path d="M39.6329 4.5497C39.9061 4.7167 40.2312 4.9013 40.4203 5.16547C41.2632 6.34657 40.345 11.8369 39.8692 13.3602C39.7386 13.7747 39.5003 13.913 39.1391 14.1137C38.9064 14.0165 38.7141 13.9086 38.5001 13.7789C38.0693 13.1426 38.1273 12.1654 38.1607 11.419C38.2401 9.53344 38.1879 5.86379 39.6329 4.5497Z" fill="#E32824"/>
<path d="M61.4034 23.1332C64.4933 24.3654 67.362 27.1532 68.8109 30.1195C70.7529 34.0928 70.4775 38.5933 69.061 42.6768C71.076 45.2166 73.8425 52.2856 73.7047 55.5634L73.6921 55.8166C73.6365 57.1609 72.6242 58.7744 71.9952 59.9552C68.5229 66.4912 64.4129 72.6902 60.6564 79.0622C59.6507 80.7663 56.7144 86.6106 55.613 87.7169C55.5445 87.7332 55.4785 87.7509 55.409 87.7635C55.3203 87.7774 55.2302 87.7935 55.1398 87.7941C54.1961 87.8041 50.4898 84.5575 49.3717 83.8531C44.1516 80.5603 38.7349 77.6189 33.3407 74.6224C28.1014 71.7556 22.8158 68.9799 17.4815 66.2938C15.9401 65.5155 11.3733 63.5764 10.2812 62.6978C10.2572 61.6796 12.3593 58.3453 12.922 57.2255C15.9301 51.2461 18.8856 45.261 22.0458 39.357C23.9735 35.7546 25.9218 32.1487 28.1649 28.7316C32.3867 27.5729 37.5029 27.0112 41.8906 27.055C44.1594 24.992 45.8408 22.8596 48.8376 21.7624C53.0435 20.2225 57.4643 21.3333 61.4044 23.1369L61.4034 23.1332Z" fill="#E32824"/>
<path d="M36.2778 35.6043L36.3576 35.762C35.8682 37.0884 35.0537 38.4131 34.3952 39.6667C33.8915 38.8178 33.4767 37.8902 33.0328 37.0077L31.8191 34.1988C33.3863 34.3782 34.8514 34.9606 36.2778 35.6043Z" fill="white"/>
<path d="M64.411 50.7367C65.5857 51.8489 66.2893 53.3897 66.9662 54.8315C66.1426 54.9078 65.3206 54.9975 64.5003 55.1005L61.2667 55.4998C62.3345 53.9245 63.3814 52.3371 64.411 50.7367Z" fill="white"/>
<path d="M67.9608 44.9432C68.4561 45.8337 71.1149 53.073 71.3679 54.1894C71.1402 54.4547 70.9907 54.3963 70.6598 54.4316L68.9589 54.4944C67.979 52.6792 67.0658 50.6515 65.4106 49.3549L67.9585 44.9419L67.9608 44.9432Z" fill="white"/>
<path d="M45.4641 52.9732C47.2428 54.0559 47.9597 55.31 48.6706 57.2147C47.5879 57.315 46.5177 57.528 45.4476 57.7193C44.949 57.1307 44.4483 56.637 43.8495 56.1518C42.9792 55.8787 42.1455 55.8221 41.2436 55.7974C40.9115 54.8771 40.505 53.9728 40.1336 53.067C42.0265 52.4672 43.55 52.2866 45.4641 52.9732Z" fill="white"/>
<path d="M40.5139 28.9666C40.1649 30.0982 38.3278 32.5809 37.6071 33.7645C35.4716 32.7083 33.7833 31.9909 31.3451 32.3626C31.2887 32.0139 31.1789 31.6715 31.0848 31.3288C30.9188 30.9385 30.779 30.5353 30.6267 30.1374C33.8112 29.3284 37.2485 29.2917 40.5115 28.9653L40.5139 28.9666Z" fill="white"/>
<path d="M70.9923 56.3347C70.4841 57.6936 69.4954 59.0511 68.7498 60.3102C67.1387 63.0846 65.4799 65.8285 63.7746 68.5455C60.7633 73.4009 57.9253 78.2788 55.112 83.2485C54.1515 78.7692 52.7764 74.497 51.1169 70.2279C49.6489 66.5686 48.1819 62.73 46.3334 59.2508C50.6668 58.851 54.9785 58.1658 59.2964 57.6207C63.1822 57.1299 67.0996 56.7781 70.9936 56.3324L70.9923 56.3347Z" fill="white"/>
<path d="M28.3141 32.3736C29.0081 33.4469 29.5172 34.7113 30.0545 35.8678C31.2557 38.4617 32.4088 41.0743 33.5185 43.7083C35.278 47.7933 37.1934 51.7482 39.0856 55.7703C35.1761 55.8878 31.1321 56.4857 27.2806 57.1483C24.9637 57.5466 22.6691 58.0354 20.3898 58.6106C18.1128 59.187 15.8596 59.8516 13.636 60.6046C18.4499 51.1694 22.9608 41.5221 28.3141 32.3736Z" fill="white"/>
<path d="M42.8341 57.7387C45.164 59.5396 50.0206 72.8375 51.0521 76.0588C51.8386 78.5156 52.4533 81.0065 53.0536 83.517C51.3348 82.4812 49.6768 81.3348 47.9661 80.2851C43.3359 77.4445 38.5322 74.6463 33.7043 72.1534C27.5009 68.6866 21.0866 65.4452 14.6931 62.3399C21.2017 59.7269 31.1975 58.411 38.1909 57.9008C39.7055 57.7894 41.327 57.5413 42.8364 57.7401L42.8341 57.7387Z" fill="white"/>
<path d="M37.7443 75.5637L37.7444 75.5637L37.7353 75.5588L15.3009 63.5936L13.9117 62.2045C16.0204 61.4586 19.8175 60.186 22.6213 59.4851C26.5731 58.4971 35.5311 57.5 41 57.5C42.3266 57.5 43.2048 57.7118 43.8176 58.0418C44.4197 58.366 44.8096 58.8279 45.1194 59.4194C45.3992 59.9537 45.6021 60.5676 45.8363 61.2767C45.8699 61.3784 45.9042 61.482 45.9394 61.5876C46.2145 62.4131 46.5395 63.3275 47.0654 64.2478C47.4426 64.908 47.9634 66.1491 48.5654 67.762C49.1632 69.364 49.8298 71.301 50.4996 73.3314C51.7018 76.9752 52.9111 80.9085 53.7481 83.7222L50.203 82.5406L37.7443 75.5637Z" fill="#E32824" stroke="white"/>
<path d="M60.587 24.9836C61.1464 25.1981 61.7247 25.5413 62.2343 25.8634C64.8675 27.5263 66.7882 30.6813 67.4597 33.6762C69.3814 42.2569 62.7753 49.2344 58.5158 55.902C55.8487 56.2129 53.2001 56.6585 50.5324 56.9598C50.3625 56.189 50.174 55.4074 49.8505 54.6874C49.0495 52.9012 47.7851 51.7992 45.9884 51.1029C43.5312 50.4747 41.6537 50.7735 39.3261 51.6368C38.291 48.4755 36.7184 45.3416 35.3691 42.2995C38.6928 36.2791 42.4281 26.5498 49.1516 23.8066C53.0806 22.203 56.8705 23.4114 60.5893 24.985L60.587 24.9836Z" fill="white"/>
<path d="M51.127 42.0409C49.6717 40.6241 47.6923 39.2115 46.6724 37.4602C45.9881 36.2839 45.9291 35.0252 46.3219 33.7423C46.3463 33.6571 46.3743 33.571 46.4032 33.4885C46.4336 33.4037 46.4649 33.3226 46.4975 33.2392C46.5302 33.1557 46.5675 33.0749 46.6048 32.9942C46.6421 32.9134 46.6818 32.834 46.7237 32.7559C46.7657 32.6779 46.81 32.6011 46.8566 32.5257C46.9009 32.449 46.9499 32.375 46.9988 32.3009C47.0478 32.2269 47.0991 32.1542 47.1527 32.0829C47.2063 32.0115 47.2623 31.9415 47.3169 31.8738C47.3751 31.8052 47.4321 31.7388 47.4913 31.6738C47.5506 31.6089 47.6122 31.5452 47.6761 31.4829C47.74 31.4206 47.8039 31.3583 47.8712 31.301C47.9361 31.2424 48.007 31.1841 48.0752 31.1305C48.1448 31.0746 48.2153 31.0223 48.2859 30.97C48.3588 30.9191 48.4316 30.8682 48.5069 30.8186C48.5821 30.769 48.6583 30.7231 48.7331 30.6795C48.8116 30.635 48.8888 30.5927 48.9683 30.5518C50.7156 29.6447 53.2727 29.6857 55.1253 30.3337C55.7461 30.5495 56.3201 30.8623 56.9459 31.0748C57.4239 30.7741 57.6126 29.8663 57.9861 29.3968C58.3107 29.2649 58.405 29.1984 58.7505 29.3638C58.9449 29.4574 59.3017 29.7378 59.3736 29.9467C59.6141 30.6436 58.9152 31.7251 58.6145 32.3482C59.4926 33.1993 61.2038 34.5065 61.4168 35.7889C61.4663 36.0904 61.4392 36.4064 61.2242 36.6388C60.8175 37.0798 60.2841 37.116 59.7145 37.156C59.1153 36.0475 58.5049 35.2114 57.5891 34.3448C56.9334 35.5504 56.2442 36.7924 55.4641 37.9231C55.9148 38.4065 56.3568 38.8942 56.7912 39.3899C57.8125 40.5686 58.6331 42.1057 58.4815 43.7077C58.2126 46.5565 55.07 48.2235 52.4493 48.3411C51.7319 48.3734 50.3947 48.0106 49.7853 48.254C49.43 48.396 49.2078 49.0552 48.8169 49.2697C48.5579 49.4116 48.1695 49.4013 47.9116 49.2616C47.6257 49.1059 47.4323 48.9353 47.3651 48.6051C47.284 48.1863 47.4911 47.8006 47.6715 47.4397C47.1491 47.5163 46.826 47.5003 46.3272 47.3208L46.1332 47.1995C44.5766 46.2109 42.7864 44.3092 42.4245 42.4293C42.2717 41.6343 42.4646 40.5955 42.9469 39.9377C43.1513 39.6589 43.27 39.5663 43.6027 39.5011C44.5918 40.1062 44.4132 41.981 44.9479 42.9376C45.3073 43.5791 46.1199 44.2157 46.6468 44.7338C46.463 44.2185 46.1702 43.51 46.2222 42.9572C46.2663 42.499 46.5723 42.0712 46.9009 41.771C47.8518 41.7 48.2201 43.4504 48.9896 43.9411C49.2694 44.1181 49.5154 44.1331 49.8153 44.0117C50.4274 43.7637 50.8415 42.6108 51.1114 42.0412L51.127 42.0409Z" fill="#E32824"/>
<path d="M46.3405 47.3196C46.4335 46.7874 46.4852 45.9554 46.8855 45.5634C47.1539 45.3029 47.311 45.2944 47.6572 45.2649C47.9273 45.4425 48.0785 45.6755 48.1574 45.9908C48.2865 46.5148 47.9293 46.9937 47.6825 47.4372C47.1601 47.5138 46.837 47.4978 46.3382 47.3183L46.3405 47.3196Z" fill="#E32824"/>
<path d="M55.6099 33.0071L55.9021 33.2379C55.9047 34.0888 54.6794 35.5762 54.1673 36.1889C53.8181 36.1268 53.5915 35.8038 53.335 35.5596C53.1376 35.1914 53.012 34.9949 53.0902 34.5688C53.1907 34.013 53.5316 33.6053 53.977 33.2858C54.5594 32.8687 54.9334 32.8987 55.6089 33.0035L55.6099 33.0071Z" fill="white"/>
<path d="M54.5181 40.062C54.9782 40.6904 55.4482 41.3772 55.7436 42.1026C56.0222 42.7874 56.134 43.5836 55.809 44.2702C55.3462 45.2492 54.3587 45.5719 53.4012 45.8748C52.7172 45.9945 52.0289 46.0032 51.3359 46.0309C52.8454 44.2394 53.6382 42.2046 54.5204 40.0634L54.5181 40.062Z" fill="white"/>
<path d="M52.419 31.6643C52.3231 31.9003 52.3835 31.8174 52.2 32.006C51.4546 32.7753 50.7094 33.5604 50.7455 34.7189C50.7893 36.1331 52.249 37.2517 53.187 38.1715L52.1778 40.0162L51.2774 39.0531C50.085 37.9554 48.7085 36.7732 48.5545 35.0443C48.4848 34.2507 48.7028 33.4373 49.2382 32.8381C50.0137 31.9682 51.3058 31.7098 52.4164 31.6689L52.419 31.6643Z" fill="white"/>
</g>
<defs>
<clipPath id="clip0_331_12059">
<rect width="64" height="65.6" fill="white" transform="translate(32.7998) rotate(30)"/>
</clipPath>
</defs>
</svg>
