<svg width="24" height="25" viewBox="0 0 24 25" fill="none" xmlns="http://www.w3.org/2000/svg">
<g clip-path="url(#clip0_331_7326)">
<path d="M11.1572 7.9C11.7358 7.55 12.1215 7.32143 12.5001 7.07857C14.2644 5.95 16.1001 5.12857 18.2858 5.27857C20.9929 5.46429 23.0929 7.57143 23.1501 10.2857C23.2001 12.5929 22.3286 14.5286 20.8001 16.2C19.6644 17.45 18.3286 18.45 16.8358 19.2357C14.4572 20.4857 12.0358 21.6286 9.48578 22.4929C8.45721 22.8429 7.50007 23.3786 6.50721 23.8214C6.15721 23.9786 5.80007 24.1429 5.4215 24.2357C4.76435 24.3929 4.2215 24.2357 3.79292 23.6429C2.61435 22.0214 1.70007 20.2786 1.13578 18.3571C0.564352 16.4143 -0.00707658 14.4643 6.62743e-05 12.4214C0.00720913 10.6357 -0.0427909 8.82143 0.242923 7.07143C0.592923 4.96429 1.70007 3.15 3.30007 1.68572C4.85007 0.264287 6.85007 0.200001 8.50007 1.52143C10.0001 2.72857 10.7858 4.33572 10.9501 6.25C10.9929 6.72857 11.0715 7.20714 11.1572 7.9ZM5.01435 22.0429C5.57864 21.8071 6.00007 21.6357 6.42149 21.45C7.30721 21.0571 8.20007 20.6643 9.08578 20.2643C11.4572 19.1929 13.8644 18.1857 16.1786 17.0143C17.2001 16.5 18.1144 15.7071 18.9501 14.9071C20.1001 13.8143 20.8572 12.4643 20.9786 10.8214C21.1001 9.2 20.2286 7.88572 18.6286 7.57143C17.8929 7.42857 17.0715 7.45714 16.3358 7.61429C14.6215 7.99286 13.2072 8.95 11.9572 10.1643C11.4286 10.6786 10.9286 11.2286 10.3644 11.7C9.8215 12.15 8.95721 12.2357 8.62864 11.9286C8.15007 11.4786 8.43578 10.9643 8.59292 10.5143C9.04292 9.23572 9.10007 7.92143 9.01435 6.6C8.92864 5.27143 8.43578 4.10714 7.44292 3.19286C6.40721 2.24286 5.35007 2.21429 4.35721 3.23572C2.96435 4.67143 2.05721 6.36429 2.05007 8.42857C2.05007 9.44286 2.08578 10.45 2.04292 11.4643C1.91435 14.4214 2.85721 17.1286 3.92864 19.8071C4.21435 20.5214 4.60007 21.1929 5.01435 22.0429Z" fill="white"/>
</g>
<defs>
<clipPath id="clip0_331_7326">
<rect width="23.15" height="23.7143" fill="white" transform="translate(0 0.571428)"/>
</clipPath>
</defs>
</svg>
