<svg width="20" height="24" viewBox="0 0 20 24" fill="none" xmlns="http://www.w3.org/2000/svg">
<path d="M10.0503 9.60089H10.2348L10.3751 9.48105C10.7064 9.19798 11.0246 8.92487 11.3339 8.65939C12.1259 7.97957 12.8597 7.34977 13.6069 6.73081C14.3381 6.12911 15.0801 5.61776 15.9215 5.35104C16.9648 5.02707 17.8668 5.09859 18.6264 5.81992C19.3894 6.54991 19.6032 7.48062 19.2397 8.28733C16.7808 13.7 13.6643 18.6418 8.88058 22.1896L8.88055 22.1896C7.82382 22.9734 6.66443 23.1414 5.67305 22.8354C4.68069 22.5292 3.80807 21.7329 3.35889 20.4907C1.63818 15.7298 0.577505 10.7954 0.500598 5.71532C0.486212 4.65364 0.731594 3.60288 1.21193 2.62755C1.82195 1.39353 2.73951 0.769652 3.6494 0.670233C4.55764 0.570993 5.57602 0.981399 6.41765 2.05984C7.6728 3.67157 8.33471 5.59774 9.01621 7.61093L9.01697 7.61315C9.18719 8.10833 9.34988 8.59638 9.5676 9.25733L9.68078 9.60089H10.0425H10.0503Z" fill="#ED1523" stroke="black"/>
</svg>
