<svg width="424" height="214" viewBox="0 0 424 214" fill="none" xmlns="http://www.w3.org/2000/svg">
<g clip-path="url(#clip0_331_10484)">
<path d="M366.822 140.187C367.474 137.298 368.011 134.392 368.205 131.421C368.531 126.54 368.154 121.711 367.279 116.917C366.022 109.991 363.906 103.345 360.825 97.0311C358.504 92.2663 355.503 87.9501 352.382 83.7096C348.969 79.0672 345.31 74.617 342.337 69.6484C338.913 63.9284 336.609 57.754 334.957 51.2884C333.819 46.8441 333.093 42.3181 332.265 37.8097C332.07 36.7437 331.63 36.8661 330.955 37.0991C327.588 38.2757 324.438 37.4544 321.483 35.8059C319.448 34.6701 318.653 32.4916 317.881 30.4005C316.767 27.3832 316.366 24.2261 316.801 21.0516C317.264 17.644 318.39 14.4229 320.946 11.9823C322.152 10.8289 323.735 10.4037 325.353 10.1649C325.902 10.0833 326.331 10.3862 326.668 10.7183C327.571 11.6036 328.612 12.3492 329.303 13.4501C329.441 13.6656 329.572 13.9685 329.898 13.8753C330.247 13.7821 330.172 13.4385 330.161 13.1938C330.064 11.5396 329.904 9.87948 328.903 8.48734C327.537 6.58843 325.553 6.34961 323.461 6.55348C319.385 6.94375 316.172 9.0174 313.497 12.0405C310.175 15.7975 308.117 20.2244 307.065 25.1406C305.619 31.8916 305.831 38.6252 307.523 45.283C308.506 49.1449 310.816 52.1389 314.4 53.764C317.035 54.9581 319.865 55.8027 322.861 55.4532C324.113 55.3076 325.176 54.7076 326.193 53.997C326.439 53.8281 326.668 53.6125 326.937 53.496C327.148 53.4028 327.417 53.1174 327.64 53.4203C327.8 53.6417 327.571 53.8455 327.468 54.0552C326.142 56.8046 323.369 58.0278 320.46 57.7831C317.418 57.5268 314.743 56.2629 312.216 54.5969C312.085 54.5096 311.913 54.4804 311.759 54.4222L311.536 54.3115C311.519 54.3872 311.502 54.463 311.484 54.5387C314.166 58.6336 316.424 62.9847 318.888 67.2136C318.819 67.7611 319.179 68.1572 319.368 68.6116C320.963 72.3453 321.5 76.1722 320.231 80.1157C319.745 81.6301 319.025 83.0281 317.996 84.2455C317.767 84.5193 317.338 84.793 317.493 85.16C317.647 85.5211 318.144 85.3406 318.487 85.4163C318.87 85.5037 319.271 85.5561 319.654 85.6551C323.284 86.6104 326.565 88.253 329.475 90.6936C330.915 91.9052 332.196 93.1517 332.813 95.0448C333.396 96.8388 333.482 98.6795 333.665 100.514C333.911 102.949 333.579 105.314 332.573 107.522C332.23 108.273 332.499 108.593 332.968 108.856C334.26 109.595 335.174 110.719 335.832 111.989C338.25 116.638 338.822 121.525 337.152 126.546C336.341 128.98 335.186 131.258 332.779 132.534C332.465 132.703 332.676 132.912 332.808 133.116C334.929 136.331 335.557 139.931 335.317 143.723C335.151 146.327 334.511 148.785 332.659 150.736C332.156 151.261 331.956 151.727 331.973 152.583C332.042 156.06 331.218 159.316 328.88 162.013C328.732 162.188 328.514 162.328 328.6 162.613C326.737 164.349 324.667 165.759 322.289 166.661C321.672 166.894 321.026 167.063 320.408 167.302C320.157 167.395 319.699 167.39 319.762 167.774C319.836 168.217 320.26 167.966 320.505 167.937C322.575 167.704 324.644 167.454 326.708 167.186C332.024 166.493 337.267 165.386 342.314 163.586C350.701 160.586 358.693 156.771 365.296 150.486C365.896 149.915 366.679 149.437 366.822 148.488L366.782 148.482C366.873 148.593 366.971 148.593 367.062 148.482C367.216 148.267 367.359 148.045 367.525 147.841C367.794 147.509 367.668 146.746 368.325 146.88C368.874 146.997 369.309 147.451 369.537 147.993C369.657 148.284 369.652 148.657 369.629 148.989C369.486 150.789 368.811 152.361 367.679 153.748C367.342 154.161 366.85 154.47 366.622 155.035C369.492 155.396 372.201 156.148 374.905 156.893C379.016 158.029 383.12 159.188 387.208 160.394C391.798 161.751 396.383 163.137 400.95 164.57C404.569 165.706 408.171 166.906 411.766 168.106C413.253 168.601 414.745 169.102 416.082 169.964C416.031 170.081 415.974 170.197 415.922 170.314C415.116 170.768 414.322 170.541 413.521 170.279C407.21 168.217 400.933 166.038 394.542 164.244C392.518 163.673 390.529 162.974 388.517 162.357C381.451 160.19 374.282 158.431 367.113 156.649C365.301 156.2 363.752 156.946 362.906 158.711C363.843 158.775 364.712 159.107 365.593 159.38C369.697 160.656 373.796 161.949 377.895 163.231C381.142 164.244 384.389 165.246 387.631 166.277C390.78 167.279 393.93 168.292 397.075 169.335C399.864 170.255 402.648 171.222 405.432 172.154C408.125 173.057 410.72 174.24 413.481 174.933C414.27 175.131 414.299 175.399 414.093 176.109C413.853 176.954 413.098 177.665 413.384 178.661C411.732 181.206 411.761 181.119 408.931 180.158C402.351 177.915 395.8 175.579 389.174 173.482C382.514 171.374 375.883 169.195 369.24 167.034C365.844 165.928 362.403 164.931 359.087 163.627C357.801 163.12 356.949 163.271 355.869 163.912C351.798 166.324 347.482 168.17 343 169.638C332.436 173.098 321.649 174.42 310.598 173.214C307.146 172.836 303.738 172.125 300.56 170.611C299.817 170.255 299.125 170.22 298.348 170.232C295.786 170.273 293.22 170.005 290.853 169.067C288.898 168.292 287.034 167.122 285.616 165.456C283.061 162.468 281.106 159.107 280.843 155.099C280.74 153.567 280.06 152.996 279.031 152.274C275.978 150.131 274.463 147.043 274.166 143.345C273.903 140.036 274.263 136.821 276.03 133.92C276.23 133.588 276.098 133.436 275.812 133.297C271.096 131.013 270.079 123.971 271.188 119.358C271.754 117.01 272.462 114.692 274.086 112.816C274.309 112.56 274.252 112.403 274.109 112.123C270.799 105.745 270.982 99.2562 273.909 92.8721C275.355 89.715 278.133 87.9326 281.466 87.0298C289.207 84.9328 297.113 84.3736 305.065 84.2164C307.083 84.1756 309.106 84.1814 311.124 84.1639C311.324 84.1639 311.553 84.2047 311.633 83.9659C312.21 82.2417 313.417 80.9078 314.326 79.3876C315.898 76.7547 315.635 74.1044 314.48 71.4599C313.674 69.6251 312.599 67.9301 311.616 66.1942C308.043 59.8801 304.024 53.7407 302.098 46.6227C299.983 38.7999 299.599 30.8606 301.515 22.9039C303.247 15.7276 306.728 9.62901 312.399 4.94582C315.635 2.27221 319.333 0.641245 323.552 0.4665C328.354 0.268454 333.334 2.645 335.209 7.67185C335.82 9.30864 335.889 11.0328 335.975 12.7395C336.381 20.9991 337.169 29.2238 338.387 37.402C339.17 42.6618 340.365 47.8226 341.72 52.9543C344.018 61.6509 348.569 69.0717 353.976 76.0616C358.075 81.3564 361.917 86.8434 364.975 92.8488C367.233 97.2874 368.766 101.988 370.017 106.799C370.223 107.597 370.366 108.04 371.435 107.795C376.889 106.543 382.428 105.739 387.968 104.947C396.326 103.759 404.683 102.582 413.081 101.697C414.465 101.551 415.859 101.569 417.249 101.615C418.192 101.65 418.678 102.169 418.626 103.083C418.552 104.324 418.409 105.57 418.22 106.799C418.072 107.778 417.523 108.238 416.46 108.314C405.558 109.118 394.719 110.516 383.903 112.106C379.782 112.712 375.648 113.271 371.515 113.824C371.109 113.877 371.029 113.9 371.069 114.407C371.298 117.401 371.298 120.4 370.961 123.394C370.623 126.406 370.24 129.417 369.572 132.37C368.96 135.056 368.274 137.718 367.251 140.281C367.102 140.24 366.959 140.193 366.81 140.153L366.822 140.187ZM285.113 153.288C285.542 155.28 286.537 156.998 287.56 158.722C289.521 162.007 292.328 163.761 296.095 164.186C300.108 164.64 304.093 164.361 308.072 163.959C311.742 163.586 315.423 163.225 318.968 161.984C322.701 160.674 325.53 158.577 326.251 154.336C326.394 154.225 326.651 154.161 326.502 153.899C326.394 153.719 326.239 153.742 326.011 153.794C324.696 154.091 323.455 154.61 322.066 154.738C318.848 155.041 315.635 155.297 312.399 155.239C307.723 155.157 303.069 154.785 298.433 154.243C294.134 153.742 289.813 153.323 285.628 152.111C284.662 151.831 284.782 152.216 284.925 152.827C284.959 152.985 285.051 153.13 285.119 153.282L285.113 153.288ZM286.726 149.362C287.109 149.461 287.492 149.56 287.875 149.659C287.995 149.828 288.143 149.851 288.32 149.758C288.503 149.787 288.686 149.822 288.869 149.851C289.309 150.061 289.75 150.311 290.258 150.09C290.59 150.148 290.922 150.206 291.253 150.259C291.448 150.439 291.665 150.463 291.899 150.346C292.082 150.369 292.265 150.398 292.448 150.422C292.757 150.719 293.122 150.649 293.483 150.573L294.432 150.649C294.763 150.853 295.118 150.87 295.478 150.742C295.861 150.777 296.238 150.812 296.621 150.853C297.016 151.092 297.433 151.074 297.862 150.969C298.508 151.01 299.154 151.057 299.8 151.097C300.074 151.272 300.36 151.261 300.651 151.144C301.429 151.185 302.206 151.226 302.984 151.266C303.921 151.523 304.87 151.47 305.819 151.36C307.774 151.36 309.729 151.365 311.685 151.371C312.433 151.47 313.182 151.505 313.914 151.261C314.76 151.22 315.606 151.179 316.447 151.144C316.87 151.295 317.281 151.237 317.693 151.08C318.207 151.033 318.722 150.993 319.231 150.946C319.528 151.062 319.808 151.033 320.077 150.853C320.322 150.818 320.574 150.777 320.82 150.742C321.054 150.841 321.266 150.806 321.466 150.649L322.015 150.562C326.634 150.55 330.624 147.008 329.984 141.486C329.738 139.366 329.183 137.327 328.789 135.248C328.606 134.287 328.309 134.252 327.554 134.52C326.022 135.062 324.438 135.464 322.826 135.638C316.932 136.291 311.027 136.582 305.099 136.302C298.988 136.017 292.882 135.615 286.8 134.951C285.697 134.829 284.587 134.514 283.456 134.776C282.427 134.386 281.329 134.299 280.26 134.118C279.826 134.048 279.38 134.141 279.357 134.765C279.277 136.885 279.008 138.988 279.151 141.119C279.317 143.56 279.883 145.768 281.952 147.288C283.01 148.069 284.222 148.505 285.428 148.954C285.834 149.193 286.257 149.362 286.731 149.35L286.726 149.362ZM325.296 92.7032C324.427 92.0741 323.449 91.7013 322.443 91.3868C319.831 90.5713 317.138 90.216 314.423 90.1635C304.15 89.9538 293.917 90.414 283.821 92.5809C281.849 93.0061 279.923 93.5303 279.099 95.7379C278.699 96.8097 278.345 97.8932 278.151 99.0232C277.647 101.906 277.693 104.79 278.111 107.685C278.219 108.419 278.299 109.106 278.831 109.718C279.351 110.318 279.883 109.991 280.437 110.021C285.828 110.318 291.225 110.149 296.615 110.172C302.835 110.207 309.061 110.143 315.28 110.125C318.424 110.213 321.569 110.219 324.673 109.718C325.427 109.595 326.468 109.718 326.925 108.978C327.788 107.597 328.566 106.124 329.017 104.545C329.824 101.738 329.475 98.895 328.657 96.169C328.166 94.538 326.908 93.373 325.302 92.7032H325.296ZM331.533 116.375C330.927 114.057 329.298 112.368 328.04 110.446C327.937 110.288 327.8 110.143 327.645 110.271C326.474 111.238 324.953 111.069 323.65 111.587C322.575 111.756 321.5 111.896 320.46 112.228C317.024 112.729 313.594 113.253 310.13 113.533C305.345 113.917 300.566 114.36 295.769 114.593C290.91 114.826 286.051 115.275 281.18 114.919C280.231 114.849 279.202 115.065 278.362 114.564C277.476 114.04 277.253 114.5 277.093 115.205C276.35 118.548 275.938 121.909 276.71 125.317C277.419 128.456 278.808 129.662 281.912 130.076C284.942 130.483 287.989 130.489 291.03 130.623C298.513 130.955 305.991 130.932 313.474 130.699C313.828 130.827 314.177 130.839 314.52 130.652L316.852 130.483C317.138 130.611 317.424 130.623 317.698 130.448C318.144 130.408 318.596 130.367 319.042 130.326C319.271 130.413 319.488 130.413 319.682 130.239C320.065 130.198 320.448 130.157 320.826 130.116C321.06 130.221 321.277 130.209 321.466 130.023C321.78 129.988 322.1 129.953 322.415 129.918C322.643 130.011 322.861 130.017 323.055 129.831C323.181 129.813 323.307 129.802 323.432 129.784C323.678 129.889 323.872 129.796 324.05 129.627C324.301 129.586 324.547 129.54 324.799 129.499C324.964 129.58 325.119 129.569 325.244 129.417C325.628 129.324 326.016 129.225 326.399 129.132C326.634 129.219 326.822 129.202 326.919 128.928C327.085 128.881 327.251 128.835 327.417 128.788C329.132 128.625 330.55 127.81 331.373 126.318C333.162 123.074 332.888 119.713 331.533 116.37V116.375ZM326.817 13.1181C326.737 12.3609 326.519 11.6153 325.713 11.6619C325.113 11.6968 324.267 11.7609 324.073 12.5939C323.941 13.1647 325.29 14.2598 325.971 14.219C326.685 14.1724 326.759 13.6307 326.811 13.1181H326.817Z" fill="black"/>
<path d="M104.73 26.8936C105.244 22.4784 105.273 18.0806 104.507 13.6829C103.821 9.76273 100.534 7.09494 97.0007 6.52993C89.7405 5.36495 84.1439 8.30068 79.7821 14.0323C76.8837 17.8476 74.9743 22.1988 73.3679 26.7072C71.51 31.9263 70.3381 37.3143 69.5835 42.7955C68.9833 47.1467 68.5488 51.5212 68.0343 55.884C67.9485 56.5888 67.8514 57.2878 67.7199 57.9809C67.6684 58.2605 67.6456 58.6566 67.2454 58.645C66.9081 58.6333 66.6166 58.4294 66.5079 58.0741C66.4108 57.7538 66.325 57.4217 66.3021 57.0956C65.7305 48.6728 65.3303 40.2384 66.6737 31.8564C67.92 24.0628 70.321 16.6885 75.1344 10.3569C78.7359 5.62125 83.0977 1.84091 89.0145 0.571094C95.2742 -0.774449 101.14 0.157528 106.124 4.5786C108.92 7.05999 110.252 10.3743 110.766 14.0382C111.875 21.9833 111.069 29.8527 109.76 37.6929C108.96 42.4868 107.754 47.1816 106.342 51.8124C105.038 56.0878 103.746 60.3633 103.106 64.8018C102.391 69.753 102.391 74.6866 103.678 79.562C103.849 80.2086 104.015 80.8959 104.358 81.4493C104.884 82.3114 105.547 81.4959 106.102 81.3852C113.225 80.0222 120.41 79.4514 127.648 79.8183C131.769 80.028 135.885 80.4649 139.761 82.1308C144.255 84.0647 147.205 87.4256 148.445 92.2078C149.788 97.3919 149.943 102.675 148.937 107.941C148.519 110.125 147.708 112.193 146.278 113.94C146.101 114.156 145.913 114.29 146.187 114.686C148.468 117.954 149.234 121.705 149.383 125.619C149.52 129.231 147.971 132.201 145.804 134.892C145.267 135.556 145.141 136.052 145.518 136.925C147.084 140.583 147.462 144.451 146.467 148.295C145.541 151.854 143.22 154.464 140.082 156.258C139.378 156.66 139.321 157.138 139.241 157.848C138.858 161.174 137.732 164.232 135.937 167.046C133.565 170.779 130.346 173.523 126.402 175.334C121.988 177.361 117.266 177.991 112.481 178.194C106.662 178.439 100.905 177.915 95.2571 176.406C94.6511 176.243 94.1595 176.505 93.6164 176.552C85.1843 177.228 76.7579 177.594 68.3316 176.476C64.1184 175.917 60.0195 174.921 56.1836 173.004C55.9092 172.865 55.6691 172.923 55.4233 173.028C53.3367 173.966 51.2158 174.816 49.0549 175.544C45.5163 176.732 41.9434 177.839 38.4105 179.045C35.0548 180.187 31.6362 181.113 28.292 182.313C26.1139 183.093 23.8616 183.658 21.6549 184.345C19.3568 185.062 17.0644 185.808 14.772 186.541C14.429 186.652 14.0975 186.873 13.7602 186.541C13.8288 186.215 13.6687 185.965 13.543 185.685C12.9427 184.375 12.3425 183.058 11.7822 181.73C11.6222 181.357 11.3878 180.891 12.0738 180.699C12.9656 180.449 13.8402 180.128 14.7377 179.889C19.7913 178.532 24.8162 177.059 29.8126 175.503C33.7571 174.274 37.6959 173.004 41.6061 171.647C43.9785 170.826 46.3452 169.964 48.7177 169.137C48.9692 169.049 49.8438 169.224 49.5752 168.56C49.3808 168.071 48.8148 167.622 48.1231 167.715C47.9288 167.739 47.7344 167.803 47.5457 167.855C46.2023 168.211 44.8646 168.595 43.5155 168.921C37.6902 170.331 31.8706 171.746 26.0339 173.104C21.2948 174.204 16.5271 175.195 11.7136 175.911C11.1191 175.998 10.5989 175.94 10.1473 175.515C9.80997 175.422 9.78139 175.096 9.6499 174.845C9.95289 174.426 10.4331 174.362 10.8733 174.239C13.1657 173.581 15.458 172.929 17.7561 172.288C21.8036 171.158 25.8452 169.987 29.9155 168.921C35.4493 167.471 41.0059 166.096 46.5968 164.681C46.1909 163.865 45.785 163.015 45.6306 162.089C45.5506 161.623 45.3105 161.075 45.8765 160.714C46.4424 160.353 47.0141 160.359 47.5457 160.766C48.0717 161.174 48.5862 161.599 49.0892 162.042C52.8394 165.374 57.104 167.785 61.866 169.224C66.2335 170.546 70.7554 170.849 75.2773 171.164C79.8507 171.478 84.4011 170.867 88.9688 170.977C89.0031 170.977 89.0373 170.884 89.1002 170.779C88.7229 170.476 88.3228 170.191 88.0426 169.766C87.2423 168.554 86.5392 167.284 86.1733 165.881C85.3615 162.788 84.7327 159.677 86.0247 156.538C86.1733 156.182 85.9275 156.13 85.6645 155.99C83.1206 154.639 80.8053 152.984 79.0961 150.585C76.5521 147.008 76.3578 143.012 77.2439 138.877C77.684 136.815 78.3643 134.828 80.1022 133.483C80.6396 133.063 80.5767 132.9 80.1879 132.434C78.6959 130.64 77.9699 128.514 78.0613 126.178C78.2614 121.087 80.0564 116.818 84.4354 113.993C85.03 113.608 84.8527 113.265 84.5955 112.839C83.698 111.377 83.4121 109.811 83.7437 108.11C83.8066 107.795 83.7037 107.446 83.6751 107.108C84.4812 104.125 85.9332 101.487 87.7625 99.0462L87.7397 99.0637C87.9798 99.0113 88.0998 98.8074 88.2484 98.6385C88.6715 98.5045 88.9459 98.4695 88.963 99.1103C89.003 100.467 88.58 101.766 88.5629 103.112C88.0941 104.696 88.1284 106.333 88.1341 107.958C87.8483 110.108 88.883 111.808 89.8777 113.568C90.5465 114.744 91.5984 114.663 92.6446 114.942C96.5376 115.979 100.522 116.369 104.507 116.573C110.652 116.882 116.809 116.975 122.972 116.736C128.745 116.515 134.422 115.734 140.013 114.267C140.219 114.214 140.333 114.127 140.436 113.917C140.688 113.41 140.99 112.927 141.293 112.449C142.711 110.201 143.414 107.731 143.512 105.075C143.534 104.953 143.552 104.836 143.574 104.714C143.746 104.591 143.763 104.434 143.672 104.259C144.015 100.759 143.592 97.3279 142.728 93.9436C142.391 92.6156 142.025 91.2758 141.196 90.1458C139.761 88.177 137.698 87.3732 135.457 86.8489C132.764 86.2257 130.014 86.0801 127.276 85.9519C120.919 85.6548 114.574 85.7364 108.274 86.7441C106.193 87.0761 104.084 87.2974 102.048 87.8974C100.059 88.2236 98.0583 88.509 96.0803 88.8993C95.2228 89.0682 94.291 88.9634 93.5135 89.5051C91.587 89.6682 89.872 90.4778 88.1798 91.3574C86.5849 92.1845 85.1329 93.2446 83.6751 94.2989C83.4293 94.4737 83.1949 94.9455 82.8691 94.6193C82.5604 94.3106 82.9662 94.0077 83.1435 93.7572C85.3615 90.6468 88.3228 88.4508 91.6098 86.6625C91.7528 86.5868 91.8671 86.4703 91.9986 86.3713C94.4224 85.3054 96.8292 84.1986 99.396 83.5113C99.7618 83.4123 99.899 83.2958 99.6646 82.8939C97.6924 79.4805 96.8349 75.7468 96.6805 71.8208C96.4462 65.9552 97.6009 60.2992 99.1044 54.6957C99.9905 51.3872 101.111 48.1427 101.991 44.8342C103.02 40.9665 103.769 37.0231 104.301 33.0505C104.57 31.0235 104.867 28.9848 104.781 26.9286L104.73 26.8936ZM134.656 121.21C132.736 121.449 130.815 121.687 128.883 121.827C121.811 122.334 114.762 122.311 107.708 121.594C105.616 121.379 103.523 120.994 101.403 121.134C100.831 120.843 100.196 120.825 99.5846 120.709C96.8006 120.196 94.0337 119.62 91.4784 118.292C89.992 117.517 88.8658 116.294 87.551 115.053C87.4481 115.705 87.2137 116.16 86.9622 116.62C86.0075 118.373 84.8299 120.004 84.0867 121.885C83.5722 122.247 83.7151 122.864 83.6008 123.353C82.5546 127.786 84.2182 130.227 87.8426 131.759C90.9181 133.058 94.2681 133.529 97.5723 133.99C105.176 135.05 112.813 135.766 120.479 136.18C126.659 136.512 132.696 135.708 138.624 134.013C139.133 133.867 139.859 133.943 140.139 133.459C140.985 131.98 142.174 130.71 142.82 129.114C143.672 127 144.026 124.81 143.546 122.532C143.449 121.047 142.803 119.684 142.585 118.222C142.494 117.61 142.18 117.895 141.894 118.093C139.693 119.631 137.257 120.616 134.662 121.216L134.656 121.21ZM115.208 155.71C119.467 155.658 123.577 155.576 127.608 154.697C130.826 153.992 134.056 153.293 136.909 151.482C138.852 150.247 140.339 148.651 140.905 146.303C141.614 143.35 141.225 140.321 141.551 137.339C141.614 136.785 141.219 136.803 140.916 137.083C140.39 137.566 139.761 137.857 139.144 138.183C134.125 140.822 128.717 141.673 123.166 141.539C112.584 141.282 102.151 139.593 91.7356 137.857C89.1288 137.42 86.5106 136.943 84.121 135.72C83.315 135.306 82.9548 135.58 82.6804 136.255C82.2974 137.193 82.0973 138.183 81.8972 139.174C80.9311 143.979 82.9834 148.581 87.168 150.917C88.62 151.726 90.1978 152.245 91.7928 152.687C99.5103 154.813 107.394 155.594 115.208 155.716V155.71ZM109.097 172.259C111.773 172.189 114.517 172.131 117.243 171.735C120.107 171.321 122.926 170.791 125.498 169.358C128.128 167.896 129.969 165.665 131.489 163.085C132.37 161.594 132.93 159.98 133.433 158.343C133.542 157.994 133.633 157.435 133.33 157.196C132.981 156.916 132.627 157.33 132.278 157.51C130.146 158.635 127.894 159.392 125.533 159.834C115.917 161.64 106.353 160.947 96.812 159.2C94.8912 158.85 92.9933 158.384 91.1582 157.691C90.5008 157.446 90.0035 157.347 90.2379 158.425C90.4551 159.403 90.4551 160.429 90.5923 161.43C91.2326 166.154 94.7826 170.191 99.596 171.356C102.706 172.113 105.862 172.224 109.097 172.259Z" fill="black"/>
<path d="M237.379 174.128C237.025 174.117 236.722 174.28 236.413 174.419C236.184 174.379 235.967 174.39 235.79 174.571C235.533 174.647 235.27 174.728 235.012 174.804C234.79 174.763 234.572 174.769 234.401 174.944C233.949 175.037 233.492 175.136 233.04 175.229C232.869 175.171 232.726 175.223 232.617 175.369C232.429 175.392 232.234 175.41 232.046 175.433C231.874 175.375 231.737 175.433 231.622 175.567L231.062 175.666C230.891 175.59 230.748 175.637 230.628 175.765C223.162 177.046 215.644 177.641 208.07 177.373C203.868 177.227 199.655 177.093 195.562 175.98C192.435 175.13 189.731 173.697 188.582 170.301C188.479 169.998 188.216 169.789 187.89 169.818C186.032 169.963 184.734 168.798 183.425 167.762C181.744 166.434 180.321 164.832 179.149 163.009C177.606 160.603 177.566 158.162 178.943 155.663C179.681 154.335 180.573 153.124 181.567 151.988C181.922 151.58 182.025 151.388 181.367 151.225C180.052 150.899 178.812 150.334 177.588 149.745C176.457 149.192 176.136 148.598 176.342 147.334C176.519 146.233 177.057 145.272 177.514 144.27C178.435 142.243 178.835 140.012 179.789 137.991C179.955 137.641 179.801 137.443 179.504 137.257C178.497 136.616 177.526 135.929 176.514 135.294C174.056 133.762 172.301 129.393 172.838 126.289C173.438 122.811 175.565 120.301 177.84 117.877C178.48 117.196 179.178 116.567 179.881 115.955C180.327 115.565 180.784 115.105 181.539 115.449C181.493 115.151 181.51 114.965 181.436 114.831C179.355 111.185 180.241 107.69 182.013 104.276C184.037 100.374 187.101 97.4089 190.502 94.7819C194.521 91.6831 198.935 89.2192 203.245 86.5863C204.343 85.9165 205.269 85.136 206.023 84.0059C207.813 81.3381 209.762 78.781 211.688 76.2064C212.174 75.5599 212.186 74.6162 212.98 74.1794C213.1 74.1153 213.158 73.9231 213.089 73.7309C211.803 70.1195 212.254 66.3275 212.009 62.6112C211.648 57.229 211.969 51.8876 213.306 46.6394C213.752 44.8745 214.347 43.1678 215.084 41.5077C217.439 36.1896 221.007 31.9142 226.22 29.4619C229.107 28.1047 232.377 27.7378 235.521 28.8561C238.511 29.9163 240.38 32.252 241.604 35.147C243.285 39.1195 243.868 43.36 244.479 47.5947C245.445 54.3224 246.006 61.0734 245.405 67.8711C244.965 72.8979 243.393 77.5345 240.678 81.7808C239.443 83.7147 238.139 85.5845 236.562 87.431C238.58 87.431 240.478 87.5707 242.358 87.8853C246.412 88.5551 250.407 89.4697 254.026 91.5608C260.229 95.1431 263.058 101.714 261.549 108.837C261.029 111.29 260.223 113.579 258.645 115.548C258.354 115.915 258.016 116.217 257.633 116.468C259.388 118.297 260.343 120.528 260.783 122.968C261.464 126.778 261.338 130.488 259.034 133.814C258.016 135.282 256.662 136.383 255.192 137.333C254.769 137.606 254.695 137.723 254.975 138.235C255.655 139.505 255.718 140.956 255.758 142.365C255.855 145.645 255.53 148.837 253.454 151.557C252.82 152.39 252.02 153.048 251.196 153.671C250.973 153.84 250.648 153.928 250.779 154.359C251.905 158.022 251.334 161.552 249.79 164.937C247.955 168.956 244.685 171.373 240.712 172.893C239.746 173.26 238.86 173.854 237.814 174C237.654 173.959 237.505 173.965 237.391 174.117L237.379 174.128ZM255.518 124.611C255.644 124.43 255.644 124.273 255.444 124.151C255.312 122.77 254.918 121.477 254.169 120.306C253.632 119.474 252.991 118.932 251.894 119.287C251.276 119.485 250.608 119.508 249.962 119.613C249.836 119.584 249.704 119.52 249.584 119.532C246.372 119.905 243.159 120.324 239.917 120.394C238.385 120.272 236.865 120.155 235.333 119.916C229.639 119.042 223.979 118 218.371 116.66C216.085 116.113 213.815 115.495 211.591 114.709C211.34 114.621 210.951 114.557 211.002 114.278C211.077 113.835 211.483 114.086 211.746 114.103C212.437 114.15 213.135 114.19 213.821 114.284C218.937 115.017 224.065 115.612 229.221 115.949C236.104 116.398 242.982 116.602 249.87 116.212C251.419 116.124 252.648 115.46 253.592 114.196C256.044 110.928 256.884 107.27 256.164 103.24C255.627 100.251 253.923 98.1254 251.374 96.6401C249.436 95.51 247.343 94.7994 245.165 94.3509C241.164 93.5238 237.105 93.2675 233.029 93.151C223.688 92.883 214.358 92.918 205.097 94.4616C203.051 94.8052 200.958 95.0965 199.095 96.0634C196.316 97.5021 193.755 99.3195 191.429 101.434C188.593 104.009 186.038 106.822 185.003 110.707C184.769 110.818 184.734 111.004 184.809 111.231C184.797 111.61 184.78 111.983 184.769 112.361C184.649 112.781 184.729 113.136 185.072 113.41C184.957 114.773 184.82 116.13 184.734 117.493C184.683 118.378 184.374 119.083 183.757 119.724C182.19 121.361 180.447 122.858 179.378 124.914C177.84 127.855 177.629 128.339 180.201 130.675C180.344 130.803 180.435 130.995 180.578 131.123C181.127 131.607 181.779 131.968 182.465 132.113C182.928 132.212 183.002 131.496 183.391 131.298C183.477 131.251 183.54 131.164 183.625 131.112C184.071 130.826 184.551 130.745 185.043 130.966C185.586 131.211 185.386 131.706 185.363 132.119C185.346 132.521 185.323 132.935 185.226 133.319C184.14 137.717 183.631 142.243 182.316 146.582C182.156 147.101 182.248 147.328 182.836 147.311C183.494 147.287 184.157 147.328 184.814 147.386C186.501 147.544 187.547 148.941 187.261 150.637C187.193 151.033 187.09 151.417 187.004 151.813C186.083 154.032 184.757 156.025 183.557 158.087C183.368 158.413 183.5 158.716 183.665 159.036C185.043 161.651 186.627 164.139 188.393 166.492C189.439 167.89 190.68 169.171 192.423 169.649C195.596 170.511 198.832 171.076 202.102 171.303C209.453 171.81 216.793 171.647 224.111 170.692C228.638 170.103 233.183 169.527 237.556 168.111C239.774 167.389 241.901 166.498 243.433 164.558C245.257 162.245 246.057 159.618 246.017 156.671C246.006 155.885 245.811 155.681 245.028 155.879C240.918 156.892 236.722 157.125 232.509 157.178C228.57 157.23 224.625 157.242 220.692 156.974C215.804 156.648 210.905 156.438 206.075 155.564C204.423 155.267 202.799 154.79 201.164 154.394C199.478 153.747 197.837 152.978 196.099 152.477C195.75 152.378 195.344 152.262 195.43 151.772C195.51 151.301 195.962 151.435 196.242 151.423C197.094 151.388 197.946 151.435 198.797 151.452C200.529 151.714 202.279 151.836 204.028 151.976C213.249 152.733 222.482 153.031 231.72 152.53C236.213 152.285 240.718 152.04 245.074 150.701C247.172 150.054 248.978 149.029 249.693 146.705C250.436 144.282 250.179 141.829 249.899 139.383C249.83 138.765 249.39 138.789 248.921 138.894C246.92 139.342 244.868 139.435 242.839 139.686C239.86 140.059 236.836 140.088 233.829 140.228C232.343 140.297 230.856 140.286 229.37 140.315C228.993 140.268 228.616 140.222 228.238 140.181C228.112 140.035 227.981 140.018 227.844 140.152C220.949 139.616 214.158 138.323 207.344 137.228C204.731 136.808 202.239 135.865 199.609 135.533C199.449 135.515 199.278 135.469 199.249 135.259C199.215 135.026 199.335 134.874 199.512 134.764C200.055 134.414 200.661 134.484 201.25 134.507C204.948 134.676 208.647 134.863 212.34 135.043C212.575 135.305 212.9 135.218 213.181 135.23C220.584 135.533 227.981 135.882 235.39 135.684C240.06 135.556 244.697 135.16 249.213 133.838C250.482 133.465 251.779 133.121 252.768 132.166C254.741 130.255 256.067 128.059 255.581 125.124C255.564 124.955 255.541 124.786 255.524 124.623L255.518 124.611ZM217.068 78.5655L217.056 78.5306C216.753 78.6878 216.605 78.9791 216.422 79.2528C215.393 80.779 214.415 82.34 213.306 83.8021C211.254 86.5106 209.162 89.2017 206.2 90.9841C205.594 91.2055 205.057 91.52 204.537 92.12C205.434 92.1549 206.12 91.9277 206.772 91.5724C206.892 91.5433 207.012 91.5084 207.138 91.4792C207.309 91.52 207.464 91.5142 207.567 91.3394C211.523 90.1162 215.564 89.2599 219.64 88.561C219.932 88.6542 220.223 88.7008 220.486 88.4794C221.561 88.3804 222.602 88.1241 223.636 87.8329C224.774 87.8795 225.929 88.0193 226.929 87.262C227.735 87.297 228.541 86.8892 229.359 87.262C229.627 87.3843 229.742 87.1281 229.885 86.93C231.205 85.1185 232.537 83.3186 233.863 81.5071C236.722 77.5986 238.603 73.2882 239.197 68.4128C239.917 62.5064 239.557 56.6233 238.848 50.7576C238.34 46.5113 237.774 42.265 236.407 38.1934C235.121 34.3665 233.223 33.318 229.65 34.4014C229.364 34.4888 229.09 34.6053 228.821 34.7334C224.814 36.609 222.259 39.8418 220.578 43.8901C219.463 46.022 218.977 48.3636 218.56 50.7052C217.474 56.8388 217.68 63.0422 217.748 69.2341C217.777 71.5407 218.326 73.7309 220.406 75.1172C221.315 75.723 222.276 76.253 223.219 76.8006C223.533 76.987 223.876 77.1093 224.254 76.987C224.917 77.3015 225.563 77.1384 226.14 76.7947C226.906 76.3462 227.632 75.822 228.364 75.3152C228.627 75.1347 228.85 74.7211 229.187 74.9483C229.576 75.2104 229.319 75.6414 229.187 75.956C228.764 77.0161 227.855 77.6685 227.066 78.4141C224.934 79.3344 222.825 79.4276 220.812 78.1228C220.006 77.6044 219.292 76.9404 218.543 76.3346C218.303 76.1424 218.045 75.8977 217.754 76.0259C217.439 76.1598 217.337 76.4919 217.337 76.853C217.337 77.3539 217.325 77.8607 217.068 78.315C217.051 78.3442 217.022 78.3733 217.022 78.4024C217.028 78.4607 217.056 78.5189 217.074 78.5713L217.068 78.5655Z" fill="black"/>
<path d="M79.1818 45.5975C78.2157 50.3156 77.1124 55.0047 76.2663 59.7403C74.7228 68.3319 71.1671 75.945 66.0163 82.8708C62.4949 87.6006 59.042 92.377 55.9893 97.4446C52.2106 103.724 49.1521 110.341 46.8026 117.302C44.7332 123.435 43.1211 129.674 42.618 136.168C42.4865 137.846 42.4808 139.535 42.4122 141.218C42.395 141.574 42.4751 141.952 42.1206 142.459C41.852 140.752 41.5947 139.203 41.366 137.654C40.9887 135.073 41.2403 132.464 41.023 129.872C41.2403 128.87 41.0631 127.856 41.1545 126.854C41.2231 126.115 40.9087 126.027 40.3885 126.359C39.308 127.047 38.0732 127.28 36.8785 127.582C31.6591 128.893 26.4227 130.145 21.1805 131.363C16.3156 132.493 11.4564 133.634 6.5515 134.566C5.53965 134.759 4.47063 134.829 3.52738 135.341C2.82423 135.201 2.49838 134.718 2.57841 134.042C2.66416 133.302 3.3616 133.401 3.83608 133.326C8.34654 132.609 12.8627 131.922 17.316 130.879C23.0898 129.528 28.8865 128.281 34.6718 126.994C36.5755 126.569 38.4848 126.161 40.3999 125.777C40.7944 125.695 41.0974 125.614 41.1202 125.13C41.1545 124.321 41.206 123.511 41.2574 122.707C41.2917 122.159 40.9773 122.218 40.6114 122.276C37.5016 122.754 34.3917 123.208 31.2875 123.703C24.519 124.786 17.7505 125.864 10.9934 126.994C8.59235 127.396 6.18563 127.769 3.83608 128.456C2.56698 128.823 2.20683 128.544 2.22398 127.204C2.23541 125.998 2.14395 124.798 2.45265 123.587C2.78993 122.264 3.59598 121.758 4.80792 121.507C15.9726 119.2 27.2744 117.802 38.5306 116.073C39.7654 115.886 40.9887 115.583 42.2578 115.717C42.7495 115.77 42.7266 115.333 42.8124 115.03C43.6413 112.304 44.4473 109.566 45.4649 106.904C47.2142 102.332 49.2379 97.8989 51.5817 93.6118C53.9084 89.348 56.8182 85.492 59.6022 81.5485C61.4087 78.9856 63.3695 76.5217 64.9073 73.7607C67.5884 68.9552 69.2177 63.8002 70.2295 58.3831C71.27 52.8203 72.4533 47.2867 73.9282 41.823C75.4603 36.1496 77.2439 30.5635 79.3476 25.0823C81.0455 20.6554 83.0806 16.4033 85.6931 12.454C86.6192 11.0561 87.734 9.80372 89.0945 8.8135C90.0778 8.09704 91.3355 7.93977 91.3355 9.15134" fill="black"/>
<path d="M407.308 190.036C405.61 190.036 404.032 189.401 402.552 188.76C396.52 186.168 390.569 183.39 384.561 180.734C379.348 178.427 374.214 175.957 369.258 173.12C369.172 173.068 369.086 173.021 369 172.969C368.755 172.829 368.509 172.643 368.657 172.34C368.806 172.049 369.069 172.258 369.269 172.34C371.178 173.086 373.082 173.849 374.997 174.583C379.193 176.184 383.389 177.798 387.602 179.365C392.342 181.124 397.035 182.999 401.734 184.846C403.884 185.691 405.976 186.716 408.297 187.03C408.891 187.112 409.543 187.164 409.577 188.003C409.606 188.848 409.297 189.535 408.48 189.844C408.114 189.978 407.702 189.978 407.314 190.036H407.308Z" fill="black"/>
<path d="M46.9052 157.807C46.9967 159.089 45.8648 159.234 45.1502 159.485C39.4049 161.495 33.5739 163.207 27.7201 164.844C22.6551 166.259 17.6016 167.733 12.5309 169.131C10.8444 169.597 9.14659 170.028 7.38586 170.115C7.19721 169.434 7.76888 169.416 8.12903 169.288C10.4671 168.479 12.8281 167.715 15.1605 166.894C16.7155 166.347 18.2475 165.723 19.791 165.135C20.4942 165.094 21.123 164.78 21.7633 164.541C27.7601 162.269 33.7512 160.003 39.7308 157.685C41.1028 157.155 42.5548 156.823 43.8468 156.077C44.7672 155.314 45.2988 155.518 46.0763 156.724C46.3221 157.108 46.5222 157.528 46.9109 157.802L46.9052 157.807Z" fill="black"/>
<path d="M325.433 181.923C318.928 181.963 313.377 181.369 307.957 179.832C305.791 179.214 303.721 178.236 301.869 176.878C301.675 176.733 301.326 176.61 301.48 176.278C301.595 176.028 301.892 176.133 302.109 176.162C303.664 176.342 305.11 176.948 306.602 177.385C313.228 179.319 319.979 179.861 326.845 179.505C331.333 179.278 335.706 178.451 340.016 177.245C340.794 177.03 341.571 176.925 342.372 176.977C342.869 177.012 343.315 177.146 343.418 177.711C343.526 178.288 342.978 178.346 342.663 178.486C339.182 180.024 335.563 181.049 331.784 181.468C329.383 181.736 326.977 181.958 325.433 181.928V181.923Z" fill="black"/>
<path d="M418.478 162.63C417.18 162.887 416.025 162.275 414.859 161.926C412.098 161.098 409.28 160.522 406.524 159.7C402.946 158.634 399.356 157.615 395.771 156.578C395.039 156.369 394.296 156.2 393.582 155.938C393.187 155.792 392.667 155.675 392.804 154.988C392.93 154.371 393.176 153.899 393.862 153.876C396.011 153.794 398.138 153.747 400.236 154.458C405.781 156.328 411.452 157.755 417.129 159.141C417.289 159.182 417.449 159.217 417.609 159.234C418.969 159.398 419.135 160.283 418.884 161.419C418.746 161.821 418.609 162.223 418.472 162.625L418.478 162.63Z" fill="black"/>
<path d="M387.11 43.9777C387.036 44.432 386.624 44.6942 386.258 44.9563C383.674 46.7736 381.09 48.591 378.472 50.3559C376.7 51.55 374.779 52.5461 373.087 53.845C371.029 55.4177 368.782 56.6992 366.621 58.0739C363.763 59.8912 360.962 61.86 357.875 63.2988C357.515 63.4677 357.235 63.5259 357.006 63.2347C356.72 62.8677 357.057 62.6464 357.292 62.4134C359.842 59.9145 362.774 57.9224 365.672 55.8954C371.978 51.4859 378.615 47.6241 385.298 43.8379C385.709 43.6049 386.138 43.4476 386.601 43.3836C387.007 43.3253 387.139 43.535 387.121 43.9835L387.11 43.9777Z" fill="black"/>
<path d="M388.448 190.776C387.814 190.927 387.419 190.409 386.933 190.176C382.051 187.869 377.187 185.516 372.299 183.227C368.463 181.427 364.455 179.941 360.78 177.85C357.241 175.835 353.348 174.961 349.689 173.4C348.363 172.835 346.991 172.392 345.653 171.857C345.185 171.664 344.756 171.321 344.944 170.715C345.11 170.162 345.585 170.115 346.082 170.156C347.488 170.272 348.763 170.855 350.072 171.315C352.782 172.276 355.457 173.33 358.059 174.577C358.853 174.955 359.533 175.515 359.608 176.493C359.642 176.901 359.934 176.854 360.139 176.971C362.072 178.118 364.233 178.672 366.313 179.423C371.847 181.421 377.415 183.332 382.543 186.314C384.658 187.543 386.613 189.022 388.528 190.549C388.506 190.624 388.483 190.7 388.454 190.776H388.448Z" fill="black"/>
<path d="M413.213 91.7881C413.67 91.8347 414.151 91.8114 414.585 91.9395C415.037 92.0677 415.465 92.388 415.448 92.9239C415.431 93.4773 414.894 93.4307 414.528 93.4715C412.19 93.7394 409.903 94.2928 407.611 94.8112C402.054 96.081 396.612 97.7586 391.17 99.4303C388.797 100.158 386.419 100.887 384.047 101.609C383.887 101.655 383.721 101.685 383.561 101.702C383.223 101.743 382.852 101.766 382.72 101.37C382.606 101.009 382.932 100.84 383.178 100.671C384.395 99.8439 385.779 99.3662 387.134 98.8536C393.788 96.3257 400.585 94.2462 407.525 92.6968C409.394 92.2774 411.281 91.9104 413.213 91.7881Z" fill="black"/>
<path d="M0.26311 58.8193C2.26966 60.0659 4.45915 60.9454 6.58003 61.9589C11.4049 64.2656 16.2526 66.5256 21.089 68.8031C25.0163 70.6555 28.9837 72.4379 32.8596 74.395C34.5517 75.2513 36.3925 75.7464 38.0103 76.7541C37.9188 76.8473 37.8788 76.9405 37.9817 77.0512C30.7387 74.4241 23.4156 72.0126 16.4413 68.6459C14.006 67.4693 11.525 66.3625 9.15825 65.0869C6.43712 63.619 3.6531 62.157 1.30354 60.0484C0.91481 59.6989 0.440327 59.4484 0.00585938 59.1572C0.0916095 59.0465 0.17736 58.9358 0.268826 58.8252L0.26311 58.8193Z" fill="black"/>
<path d="M34.6883 36.8076C35.2943 36.7901 35.7687 37.1338 36.2146 37.46C42.543 42.1199 49.0543 46.5351 54.7538 52.0221C55.114 52.3658 55.4455 52.7444 55.7885 53.1055C55.9657 53.2978 56.3773 53.4492 56.0972 53.7754C55.8743 54.0375 55.5656 54.1132 55.1368 53.9327C53.8449 53.3851 52.8673 52.4007 51.764 51.5853C49.02 49.5582 46.3332 47.438 43.4863 45.574C40.5479 43.6518 37.9182 41.3626 35.2257 39.1317C34.8198 38.7939 34.4711 38.3803 34.1052 37.99C33.8822 37.757 33.7793 37.4774 33.9223 37.1571C34.0766 36.8251 34.3796 36.8134 34.6883 36.8018V36.8076Z" fill="black"/>
<path d="M285.959 187.282C285.942 187.503 285.959 187.69 285.748 187.736C285.571 187.777 285.451 187.666 285.319 187.55C284.502 186.81 284.124 185.761 283.587 184.847C280.18 179.08 276.87 173.25 273.669 167.361C273.428 166.918 273.2 166.475 272.982 166.021C272.868 165.776 272.777 165.503 273.045 165.287C273.285 165.101 273.543 165.112 273.771 165.31C273.971 165.485 274.172 165.666 274.332 165.875C279.116 172.289 283.038 179.185 285.742 186.775C285.811 186.961 285.896 187.142 285.954 187.282H285.959Z" fill="black"/>
<path d="M75.5401 185.347C77.661 186.075 79.8505 186.523 82.08 186.669C87.1849 187.007 92.2728 186.844 97.3492 186.139C97.7436 186.086 98.1438 186.075 98.5383 186.081C98.8069 186.081 99.1671 185.964 99.2128 186.442C99.2528 186.849 98.967 186.954 98.6812 187.059C97.3035 187.56 95.8857 187.898 94.4451 188.125C89.8718 188.853 85.2813 189.01 80.6851 188.352C78.5413 188.044 76.6663 187.112 75.1113 185.545C75.1513 185.248 75.3571 185.323 75.5401 185.341V185.347Z" fill="black"/>
<path d="M171.7 205.577C172.449 200.387 173.655 195.291 174.604 190.141C175.147 187.2 175.49 184.218 175.919 181.253C175.953 181.02 175.959 180.781 176.016 180.554C176.102 180.204 176.131 179.791 176.651 179.808C177.223 179.826 177.131 180.268 177.142 180.612C177.217 183.519 177.011 186.402 176.542 189.268C175.776 193.916 174.581 198.459 173.129 202.933C172.849 203.795 172.318 204.57 172.34 205.525C172.135 205.636 171.929 205.752 171.7 205.577Z" fill="black"/>
<path d="M385.647 116.224C386.436 115.577 387.356 115.472 388.242 115.327C396.28 114.01 404.335 112.805 412.504 112.781C414.162 112.781 415.814 112.822 417.46 113.003C417.786 113.038 418.106 113.125 418.426 113.206C418.586 113.253 418.741 113.375 418.724 113.556C418.707 113.76 418.518 113.795 418.352 113.818C417.826 113.876 417.294 113.993 416.774 113.97C409.6 113.649 402.5 114.54 395.4 115.344C392.375 115.688 389.34 115.956 386.31 116.253C386.093 116.276 385.864 116.23 385.647 116.218V116.224Z" fill="black"/>
<path d="M76.1005 163.923C75.8146 164.809 74.9286 164.756 74.3512 164.809C69.955 165.205 65.5761 164.966 61.2143 164.226C57.8471 163.655 54.8344 162.193 51.8103 160.702C51.6674 160.632 51.6331 160.516 51.7246 160.376C54.4857 159.869 57.264 160.178 60.0309 160.248C60.1567 160.248 60.311 160.23 60.3625 160.399C60.4254 160.597 60.3053 160.714 60.1681 160.813C59.6822 161.157 59.1105 161.18 58.5503 161.221C57.79 161.279 57.0354 161.32 56.2122 161.803C62.8664 163.172 69.412 164.191 76.0948 163.929L76.1005 163.923Z" fill="black"/>
<path d="M262.458 56.1512C263.83 53.9669 265.545 52.2194 267.095 50.3497C269.964 46.8839 273.194 43.7909 276.613 40.8959C276.716 40.8085 276.801 40.7037 276.91 40.628C277.339 40.3251 277.796 39.8707 278.311 40.3892C278.842 40.925 278.259 41.3444 277.973 41.6648C276.064 43.8142 274.206 46.0218 272.12 47.9964C269.33 50.6351 266.477 53.198 263.533 55.6561C263.264 55.8775 263.036 56.192 262.453 56.1454L262.458 56.1512Z" fill="black"/>
<path d="M173.101 34.3489C173.049 34.6518 173.129 34.943 172.855 35.0421C172.518 35.1585 172.329 34.9547 172.135 34.6809C171.277 33.4752 170.768 32.0772 170.122 30.7608C168.424 27.3008 166.955 23.7418 166.155 19.9382C166.081 19.577 165.995 19.2159 165.921 18.8548C165.835 18.4354 165.823 18.0335 166.315 17.8529C166.749 17.6898 167.087 17.8471 167.367 18.1849C167.87 18.7965 168.047 19.5654 168.264 20.2993C169.391 24.0505 170.974 27.6328 172.203 31.3491C172.54 32.3626 172.821 33.3994 173.106 34.3489H173.101Z" fill="black"/>
<path d="M157.62 80.1038C155.482 78.5719 153.413 76.9468 151.315 75.3566C148.359 73.1198 145.278 71.0112 142.728 68.2561C142.637 68.157 142.551 68.0522 142.454 67.9648C142.254 67.7843 141.968 67.5571 142.14 67.3008C142.334 67.0037 142.603 67.2891 142.826 67.4056C144.746 68.3959 146.57 69.555 148.382 70.7258C151.298 72.6072 154.076 74.6692 156.254 77.4535C156.803 78.1583 157.329 78.8748 157.866 79.5854C157.929 79.8301 158.026 80.0864 157.62 80.098V80.1038Z" fill="black"/>
<path d="M48.8491 118.303C50.1011 113.876 51.6732 109.577 53.794 105.506C55.3947 102.442 57.104 99.4422 59.0191 96.5647C59.385 96.0113 59.7966 95.5162 60.534 95.2891C59.7108 96.9433 58.9162 98.6151 58.0701 100.258C55.2289 105.733 52.5935 111.319 49.9239 116.888C49.6952 117.365 49.3922 117.808 49.1235 118.268C49.0321 118.28 48.9406 118.297 48.8491 118.309V118.303Z" fill="black"/>
<path d="M418.26 117.242C416.071 117.225 413.916 117.615 411.738 117.732C408.862 117.889 406.009 118.378 403.123 118.326C402.402 118.314 402.059 118.064 402.214 117.301C405.541 116.561 408.942 116.386 412.321 116.048C414.287 115.85 416.265 115.745 418.243 115.629C418.683 115.606 419.341 115.285 419.472 116.025C419.587 116.648 419.095 116.974 418.546 117.143C418.449 117.172 418.357 117.207 418.266 117.242H418.26Z" fill="black"/>
<path d="M202.09 71.7627C201.484 70.6269 201.444 69.6425 201.204 68.7221C199.987 63.9865 199.769 59.2276 200.976 54.4512C201.033 54.224 201.107 54.0027 201.17 53.7814C201.313 53.2804 201.593 52.8668 202.148 53.0241C202.748 53.193 202.359 53.6882 202.336 54.0435C202.039 58.948 201.879 63.8584 202.136 68.7745C202.182 69.6599 202.336 70.557 202.085 71.7627H202.09Z" fill="black"/>
<path d="M140.808 195.436C141.888 193.455 142.877 191.417 144.078 189.524C144.952 188.143 145.718 186.71 146.536 185.301C148.542 181.87 150.789 178.608 153.093 175.375L153.464 175.392C150.057 182.167 146.439 188.807 141.831 194.836C141.608 195.127 141.425 195.447 141.225 195.756C140.979 195.791 140.842 195.68 140.813 195.436H140.808Z" fill="black"/>
<path d="M88.8886 60.683C88.9229 61.2713 89.3974 61.1082 89.7118 61.1548C91.3811 61.4111 93.0561 61.5684 94.9426 61.3878C94.3938 62.3431 93.6563 62.7799 92.8617 63.1352C91.4725 63.7585 89.9748 63.7993 88.4999 63.9798C87.6995 63.2459 86.6705 62.8906 85.7216 62.4654C84.8641 62.0809 84.4868 61.3645 84.0237 60.7004C83.6636 60.1879 83.8122 59.8034 84.5382 59.885C85.6244 60.0015 86.6991 60.1995 87.7281 60.549C88.1169 60.683 88.4827 60.7645 88.8829 60.683H88.8886Z" fill="black"/>
<path d="M215.478 196.029C215.793 196.128 215.839 196.321 215.896 196.519C217.302 201.301 218.251 206.182 218.828 211.139C218.886 211.605 218.891 212.083 218.886 212.554C218.88 212.886 218.863 213.253 218.4 213.3C217.971 213.347 217.794 213.061 217.719 212.718C217.479 211.564 217.308 210.393 217.022 209.252C216.079 205.413 215.57 201.516 215.358 197.573C215.336 197.171 215.347 196.763 215.358 196.361C215.358 196.274 215.421 196.187 215.473 196.035L215.478 196.029Z" fill="black"/>
<path d="M249.613 59.7756C249.567 59.5717 249.515 59.4494 249.515 59.327C249.63 55.2846 248.749 51.3645 248.12 47.4152C247.949 46.3551 247.812 45.2833 247.732 44.2115C247.703 43.798 247.463 43.1747 248.023 42.9883C248.715 42.7553 248.858 43.4834 249.087 43.9028C249.721 45.062 250.013 46.3551 250.241 47.6365C250.927 51.4984 250.453 55.3545 250.018 59.2047C249.996 59.3969 249.921 59.595 249.607 59.7697L249.613 59.7756Z" fill="black"/>
<path d="M28.463 77.5638C27.5998 77.2259 26.7537 76.8473 25.8733 76.5677C25.4617 76.4337 25.1987 76.1716 25.3016 75.8396C25.3988 75.5134 25.799 75.4843 26.1591 75.5658C28.543 76.1134 30.8297 76.9755 33.1449 77.7443C35.746 78.6064 38.3471 79.4743 40.9253 80.4063C42.7661 81.0703 44.5897 81.7693 46.4648 82.3343C46.4476 82.4042 46.4248 82.4799 46.4076 82.5498C46.1904 82.5498 45.9789 82.544 45.7616 82.5382C45.6873 82.2877 45.5272 82.3343 45.3615 82.4275C39.8735 81.0645 34.454 79.451 29.0632 77.7385C28.9032 77.5579 28.6859 77.5579 28.4687 77.5579L28.463 77.5638Z" fill="black"/>
<path d="M311.267 48.7475C309.975 46.901 309.609 44.7341 309.358 42.5673C308.918 38.787 309.18 35.0416 310.158 31.3603C310.192 31.2321 310.227 31.0981 310.267 30.97C310.352 30.6904 310.53 30.4224 310.81 30.4807C311.21 30.5681 310.998 30.9176 310.941 31.1506C310.061 34.7678 310.112 38.4316 310.53 42.0896C310.775 44.274 311.256 46.4292 311.633 48.596C311.513 48.6484 311.387 48.7009 311.267 48.7475Z" fill="black"/>
<path d="M372.808 74.856C378.399 70.5864 384.527 67.9303 391.644 68.1982C384.996 69.3108 379.022 72.4387 372.808 74.856Z" fill="black"/>
<path d="M219.394 24.0156C219.251 18.0801 219.154 12.1503 219.257 6.21481C219.269 5.51583 219.183 4.79937 219.457 4.11786C219.543 3.90234 219.543 3.6577 219.875 3.66935C220.246 3.68682 220.286 3.94311 220.315 4.21688C220.332 4.3858 220.338 4.55472 220.343 4.72365C220.526 11.1659 220.235 17.6024 220.023 24.0389C219.812 24.167 219.6 24.1903 219.394 24.0156Z" fill="black"/>
<path d="M225.557 207.26C224.86 204.662 224.745 202.029 224.522 199.42C224.236 196.1 223.636 192.803 223.636 189.453C223.636 188.964 223.362 188.155 224.065 188.114C224.722 188.073 224.785 188.906 224.825 189.448C225.077 193.315 225.288 197.189 225.528 201.057C225.648 203.008 225.689 204.965 225.614 206.922C225.614 207.039 225.58 207.149 225.563 207.266L225.557 207.26Z" fill="black"/>
<path d="M255.558 27.4228C255.272 28.8383 254.638 30.2945 253.889 31.7041C252.82 33.7079 251.797 35.7407 250.505 37.6105C250.133 38.1464 249.819 38.7172 249.441 39.2473C249.224 39.5502 249.047 40.1269 248.573 39.8589C248.012 39.5385 248.378 39.026 248.595 38.6299C249.396 37.1562 250.202 35.6883 251.031 34.2321C252.111 32.3448 253.032 30.376 253.86 28.3606C254.095 27.7898 254.409 27.2889 254.832 26.852C254.992 26.6831 255.175 26.4909 255.433 26.6365C255.673 26.7704 255.678 27.0151 255.564 27.4228H255.558Z" fill="black"/>
<path d="M207.596 48.3643C207.395 53.793 207.647 59.216 207.887 64.6331C207.916 65.2389 207.933 65.8447 207.956 66.4505C207.961 66.6485 207.996 66.8873 207.727 66.9223C207.493 66.9514 207.355 66.7708 207.293 66.5786C207.178 66.2291 207.075 65.8738 207.018 65.5068C206.435 61.6566 206.492 57.7772 206.647 53.9037C206.721 52.0922 206.921 50.2865 207.064 48.4808C207.241 48.44 207.418 48.3992 207.59 48.3643H207.596Z" fill="black"/>
<path d="M313.439 38.3571C313.485 39.2192 313.645 40.0871 313.559 40.9317C313.251 43.9956 314.548 46.5527 315.909 49.104C316.423 50.0651 317.041 50.9796 317.258 52.0747C317.31 52.3251 317.424 52.6513 317.109 52.7853C316.818 52.9134 316.589 52.6746 316.463 52.4475C315.177 50.1874 313.725 48.0206 312.982 45.4751C312.382 43.4189 312.416 41.3627 312.811 39.2949C312.851 39.0969 312.908 38.9046 312.988 38.7183C313.051 38.5726 313.154 38.4445 313.245 38.3047C313.308 38.3222 313.376 38.3396 313.439 38.3629V38.3571Z" fill="black"/>
<path d="M293.105 75.6758C294.58 74.6739 296.095 73.8118 297.685 73.1012C300.074 72.0236 302.464 70.9518 305.002 70.282C305.316 70.2004 305.694 70.014 305.877 70.4218C306.059 70.8353 305.688 70.9809 305.396 71.1557C304.282 71.8139 303.104 72.3323 301.921 72.8449C299.457 73.9225 296.919 74.7787 294.369 75.6001C293.963 75.734 293.563 75.8738 293.105 75.6758Z" fill="black"/>
<path d="M232.629 197.848C231.577 194.272 230.514 190.689 229.473 187.107C229.359 186.717 228.873 186.169 229.553 185.919C230.131 185.709 230.308 186.297 230.474 186.74C231.663 189.955 232.383 193.299 233.161 196.631C233.292 197.184 233.406 197.743 233.532 198.302C233.229 198.151 232.932 198 232.629 197.848Z" fill="black"/>
<path d="M264.482 180.908C266.831 184.246 268.186 188.09 269.815 191.801C269.644 191.772 269.478 191.737 269.307 191.708C267.843 189.302 266.631 186.756 265.454 184.199C264.968 183.151 264.51 182.085 264.042 181.031C264.19 180.99 264.333 180.949 264.482 180.908Z" fill="black"/>
<path d="M144.329 171.95C143.163 174.187 141.905 176.301 140.43 178.27C140.07 178.748 139.664 179.196 139.275 179.65C139.047 179.924 138.726 179.977 138.486 179.755C138.258 179.546 138.561 179.365 138.658 179.173C139.961 176.563 142.065 174.548 143.654 172.148C143.723 172.049 143.843 171.967 143.957 171.921C144.037 171.886 144.146 171.933 144.329 171.95Z" fill="black"/>
<path d="M288.847 59.3201C290.339 58.1376 292.031 57.4328 293.9 57.1357C292.551 58.6502 290.51 58.7201 288.864 59.6113C288.858 59.5123 288.852 59.4191 288.847 59.3201Z" fill="black"/>
<path d="M329.972 116.497C330.961 119.083 331.384 121.716 330.612 124.448C330.395 125.228 330.115 125.962 329.463 126.504C328.92 126.958 328.834 126.667 328.812 126.16C329.383 122.211 329.097 118.46 326.428 115.239C326.05 114.779 325.707 114.289 325.359 113.806C325.233 113.631 324.97 113.485 325.136 113.206C325.273 112.973 325.53 112.979 325.753 112.973C326.268 112.955 326.719 113.136 327.131 113.45C328.251 114.295 329.252 115.262 329.972 116.497Z" fill="black"/>
<path d="M323.832 95.2949C324.976 96.157 325.45 97.2987 325.519 98.7549C325.627 101.038 325.479 103.234 324.438 105.308C324.044 106.1 323.472 106.747 322.838 107.329C322.46 107.679 322.009 107.807 321.483 107.463C320.642 106.91 320.625 106.776 321.42 106.135C321.952 105.704 322.563 105.325 322.718 104.562C323.775 102.692 323.604 100.636 323.547 98.6093C323.529 97.9161 323.449 97.188 323.221 96.5414C322.963 95.8133 323.129 95.4638 323.821 95.2949H323.832Z" fill="black"/>
<path d="M324.696 137.519C326.102 137.368 326.119 137.362 326.468 138.789C326.931 140.665 327.08 142.587 327.285 144.503C327.348 145.109 327.2 145.697 326.919 146.239C326.788 146.495 326.679 146.857 326.308 146.758C326.016 146.682 325.993 146.361 325.953 146.093C325.913 145.802 326.016 145.488 325.845 145.214C325.776 143.035 325.227 140.933 324.919 138.789C325.056 138.492 325.039 138.236 324.736 138.055C324.719 137.88 324.707 137.7 324.69 137.525L324.696 137.519Z" fill="black"/>
<path d="M124.544 95.749C124.143 95.7606 123.858 95.7781 123.84 95.382C123.823 94.951 124.183 94.9335 124.446 94.8461C126.865 94.0073 129.38 93.6054 131.884 93.1511C132.438 93.0521 132.981 92.9064 133.53 92.8016C133.747 92.7608 134.028 92.6793 134.142 92.9647C134.273 93.2967 133.993 93.4423 133.77 93.5821C133.662 93.652 133.524 93.687 133.399 93.7044C130.569 94.0772 127.888 95.1082 125.104 95.6558C124.875 95.7024 124.646 95.7315 124.544 95.749Z" fill="black"/>
<path d="M122.16 89.598C125.35 88.9573 128.568 88.6311 131.815 88.6602C132.227 88.6602 132.93 88.4738 132.924 89.0912C132.924 89.5456 132.238 89.4524 131.821 89.4699C128.62 89.6155 125.418 89.7553 122.217 89.8951C122.2 89.7961 122.183 89.697 122.16 89.598Z" fill="black"/>
<path d="M134.01 95.8711C134.205 95.8536 134.422 95.807 134.542 96.0226C134.662 96.2381 134.514 96.407 134.388 96.5526C134.193 96.7798 133.982 97.0536 133.673 97.0477C132.375 97.0303 131.135 97.4205 129.866 97.5894C129.586 97.6244 129.231 97.6768 129.066 97.3564C128.877 96.9837 129.003 96.7332 129.437 96.6283C130.946 96.2788 132.473 96.0226 134.01 95.8653V95.8711Z" fill="black"/>
<path d="M127.762 92.37C127.448 92.2768 127.093 92.5564 127.036 92.1078C126.996 91.7817 127.287 91.7758 127.51 91.7118C129.391 91.1584 131.341 91.0419 133.256 90.7273C133.484 90.6924 133.776 90.7565 133.753 91.0594C133.73 91.3914 133.387 91.4438 133.153 91.4846C131.329 91.7991 129.506 92.0845 127.762 92.3641V92.37Z" fill="black"/>
<path d="M114.019 163.282C118.684 163.405 123.229 162.548 127.762 161.558C128.116 161.482 128.471 161.395 128.825 161.343C129.134 161.296 129.557 161.115 129.683 161.541C129.786 161.896 129.443 162.129 129.134 162.292C127.47 163.177 125.653 163.574 123.835 163.9C120.61 164.482 117.363 164.861 114.076 164.826C112.641 164.814 111.252 164.558 109.892 164.104C109.629 164.016 109.189 164.022 109.286 163.608C109.354 163.323 109.749 163.282 110.046 163.282C111.367 163.282 112.693 163.282 114.013 163.282H114.019Z" fill="black"/>
<path d="M191.914 128.684C191.966 127.641 192.217 126.627 192.566 125.591C193.2 123.715 193.955 121.933 195.218 120.412C195.493 120.08 195.327 119.812 195.235 119.486C194.584 117.185 194.012 114.896 194.298 112.444C194.578 110.062 195.104 107.813 196.659 105.932C196.893 105.646 197.128 105.367 197.391 105.11C197.808 104.697 198.334 104.277 198.883 104.545C199.46 104.831 199.197 105.506 199.123 106.013C198.848 107.877 198.471 109.724 198.254 111.593C197.934 114.349 197.911 117.11 198.534 119.836C198.677 120.459 198.523 120.954 198.128 121.403C196.304 123.441 195.693 126.01 195.075 128.579C195.03 128.777 195.035 128.981 194.984 129.179C194.527 130.909 194.441 132.633 195.15 134.322C195.23 134.508 195.355 134.712 195.201 134.881C195.012 135.085 194.767 134.974 194.555 134.881C193.692 134.503 193.075 133.874 192.754 132.971C192.268 131.602 191.954 130.192 191.92 128.695L191.914 128.684Z" fill="black"/>
<path d="M196.636 137.624C197.38 137.671 197.071 138.183 196.894 138.515C196.436 139.366 195.87 140.158 195.436 141.026C194.367 143.158 193.904 145.458 193.704 147.823C193.681 148.12 193.584 148.412 193.515 148.709C193.441 149.023 193.206 149.14 192.926 149.163C192.623 149.186 192.435 149.006 192.32 148.732C192.269 148.61 192.206 148.482 192.183 148.353C191.686 145.697 191.623 143.047 192.612 140.49C193.298 138.707 194.881 138.055 196.631 137.624H196.636Z" fill="black"/>
<path d="M253.826 122.736C254.443 123.755 254.335 124.909 254.398 126.027C254.192 127.553 253.946 129.068 253.094 130.39C252.585 131.182 252.048 131.939 251.185 132.364C251.03 132.44 250.853 132.627 250.659 132.417C250.442 132.184 250.687 132.067 250.785 131.922C251.465 130.873 252.082 129.796 252.465 128.59C253.094 127.14 252.854 125.643 252.711 124.151C252.78 123.732 252.797 123.324 252.357 123.08C252.34 122.963 252.322 122.852 252.305 122.736C252.814 122.223 253.317 122.73 253.826 122.736Z" fill="black"/>
<path d="M195.419 158.984C194.985 160.743 195.168 162.566 194.847 164.337C194.773 164.75 194.865 165.205 194.544 165.583C192.812 163.498 192.984 161.121 193.556 158.774C193.756 157.947 194.459 157.213 195.459 157.056C195.448 157.696 195.431 158.337 195.419 158.984Z" fill="black"/>
<path d="M254.466 106.484C254.478 107.876 254.352 109.245 253.934 110.573C253.883 110.73 253.843 110.905 253.74 111.021C253.34 111.493 252.917 112.303 252.322 112.017C251.894 111.814 252.46 111.091 252.648 110.625C253.529 108.476 253.74 106.292 253.157 104.014C253.031 103.525 252.683 102.663 253.3 102.511C253.934 102.354 254.02 103.263 254.123 103.781C254.3 104.666 254.357 105.581 254.46 106.478L254.466 106.484Z" fill="black"/>
<path d="M220.36 70.2477C219.549 70.7894 219.509 70.2069 219.446 69.6128C218.52 61.225 218.846 52.977 222.075 45.0493C222.127 44.927 222.161 44.793 222.201 44.6649C222.298 44.496 222.51 44.3678 222.418 44.1174C222.95 42.7893 223.676 41.5894 224.688 40.5875C224.877 40.4011 225.094 40.238 225.323 40.1098C225.637 39.9351 226.054 39.6089 226.317 39.8652C226.66 40.203 226.283 40.5991 226.066 40.9195C222.207 46.5754 220.898 53.0294 220.475 59.7338C220.258 63.2346 220.195 66.7353 220.355 70.2419L220.36 70.2477Z" fill="black"/>
<path d="M423.999 148.493C423.999 148.493 423.999 148.511 423.994 148.517C423.982 148.511 423.971 148.499 423.96 148.487H423.999V148.493Z" fill="black"/>
<path d="M387.11 11.0611C387.013 10.5252 386.87 10.0068 386.653 9.51172C386.916 9.89033 387.042 10.3971 387.11 11.0611Z" fill="black"/>
<path d="M327.743 37.0754C325.867 37.0754 323.912 36.4929 321.763 35.2988C319.922 34.2795 319.168 32.2175 318.43 30.2254C317.31 27.1964 316.955 24.15 317.372 21.1386C317.893 17.3233 319.19 14.4691 321.34 12.4129C322.495 11.3062 324.061 10.9509 325.439 10.747C325.473 10.747 325.507 10.7412 325.536 10.7412C325.765 10.7412 325.999 10.8694 326.268 11.1431C326.531 11.4052 326.805 11.6499 327.074 11.8887C327.737 12.4828 328.366 13.0479 328.817 13.7701L328.846 13.8226C328.972 14.0381 329.235 14.4808 329.778 14.4808C329.869 14.4808 329.955 14.4691 330.046 14.44C330.172 14.405 330.286 14.3526 330.378 14.2886C331.298 20.026 331.498 25.7169 331.681 30.7962C331.75 32.7534 331.819 34.6231 331.921 36.3997C331.824 36.3706 331.716 36.3589 331.601 36.3589C331.327 36.3589 331.058 36.4463 330.761 36.5453C329.766 36.8948 328.743 37.0696 327.725 37.0696L327.743 37.0754Z" fill="#DD2935"/>
<path d="M325.542 11.3232C325.582 11.3232 325.69 11.3698 325.885 11.562C326.159 11.8299 326.439 12.0804 326.708 12.3251C327.343 12.8959 327.937 13.4318 328.343 14.0725L328.372 14.1249C328.509 14.3579 328.926 15.0686 329.789 15.0686C329.835 15.0686 329.886 15.0686 329.932 15.0627C330.755 20.5381 330.95 25.9611 331.127 30.8248C331.19 32.549 331.247 34.2091 331.333 35.7992C331.081 35.8342 330.841 35.9157 330.595 35.9973C329.663 36.3235 328.703 36.4924 327.748 36.4924C325.971 36.4924 324.107 35.9332 322.043 34.7857C320.391 33.8712 319.705 32.0014 318.973 30.021L318.962 29.9919C317.887 27.0853 317.544 24.132 317.944 21.2196C318.442 17.5441 319.682 14.8006 321.74 12.8376C322.781 11.8416 324.238 11.5154 325.53 11.3232H325.547M325.542 10.1582C325.485 10.1582 325.422 10.1582 325.365 10.1699C323.747 10.4087 322.163 10.8339 320.957 11.9872C318.402 14.4278 317.275 17.6432 316.812 21.0565C316.378 24.2252 316.778 27.3823 317.893 30.3996C318.665 32.4965 319.459 34.675 321.494 35.8051C323.49 36.9176 325.57 37.6574 327.748 37.6574C328.8 37.6574 329.875 37.4826 330.967 37.0982C331.218 37.0108 331.436 36.9409 331.619 36.9409C331.933 36.9409 332.15 37.1448 332.276 37.8088C332.293 37.8904 332.305 37.9719 332.322 38.0535C332.419 38.0185 332.516 37.9777 332.613 37.9428C332.076 30.7025 332.373 21.5749 330.635 12.3367C330.264 11.894 330.029 11.4921 329.961 11.1659C330.081 11.8299 330.132 12.5173 330.172 13.1988C330.189 13.4492 330.258 13.7871 329.909 13.8803C329.869 13.8919 329.829 13.8978 329.795 13.8978C329.549 13.8978 329.429 13.6415 329.315 13.4551C328.623 12.3542 327.583 11.6086 326.679 10.7232C326.382 10.4261 326.011 10.1582 325.542 10.1582Z" fill="black"/>
<path d="M387.11 11.0611C387.013 10.5252 386.87 10.0068 386.653 9.51172C386.916 9.89033 387.042 10.3971 387.11 11.0611Z" fill="black"/>
<path d="M325.713 14.2624C326.519 14.2158 326.736 14.9614 326.816 15.7186H326.811C326.759 16.2312 326.685 16.7729 325.97 16.8195C325.29 16.8603 323.941 15.7652 324.072 15.1944C324.267 14.3614 325.113 14.2973 325.713 14.2624Z" fill="white"/>
<path d="M153.69 169.327C153.485 169.212 153.287 169.097 153.083 168.982C152.264 168.365 151.316 168.057 150.312 167.875C149.953 167.809 149.475 167.833 149.587 167.24C150.182 167.174 150.814 167.246 151.329 166.841C153.008 166.624 154.31 165.837 155.109 164.362C155.791 163.116 156.64 161.979 157.403 160.794C158.041 159.796 158.748 158.823 159.101 157.668C159.132 157.589 159.163 157.51 159.194 157.432C159.665 157.287 159.975 157.402 159.944 157.934C159.907 158.526 160.204 158.907 160.669 159.216C160.713 159.264 160.762 159.312 160.806 159.361C162.777 161.822 164.766 164.277 166.706 166.763C167.239 167.446 167.723 168.014 168.727 167.773C169.031 167.7 169.427 167.785 169.694 168.202C169.012 168.45 168.287 168.625 168.014 169.375C167.878 169.327 167.741 169.278 167.599 169.224C167.196 168.764 166.886 169.17 166.638 169.375C165.429 170.361 164.562 171.57 164.295 173.124C164.041 173.59 163.874 174.074 163.874 174.606C163.694 174.709 163.694 174.86 163.744 175.029L163.644 175.453C163.396 177.073 163 178.688 163.384 180.345L163.409 180.944C162.907 180.968 162.628 180.762 162.498 180.26C162.405 179.891 162.219 179.535 162.008 179.214C160.087 176.209 157.948 173.348 155.537 170.693C155.01 170.113 154.428 169.605 153.671 169.333L153.69 169.327ZM159.374 159.778C157.737 162.79 157.713 166.732 153.616 168.135C157.415 170.004 159.746 173.016 162.045 176.257C162.244 175.283 162.386 174.467 162.572 173.663C162.981 171.879 163.601 170.107 165.144 169.024C166.167 168.305 166.08 167.924 165.287 167.271C165.262 167.246 165.243 167.216 165.219 167.186C163.303 164.761 161.394 162.342 159.374 159.778Z" fill="black"/>
<path d="M159.374 159.778C157.737 162.79 157.713 166.732 153.616 168.135C157.415 170.004 159.746 173.016 162.045 176.257C162.244 175.283 162.386 174.467 162.572 173.663C162.981 171.879 163.601 170.107 165.144 169.024C166.167 168.305 166.08 167.924 165.287 167.271C165.262 167.246 165.243 167.216 165.219 167.186C163.303 164.761 161.394 162.342 159.374 159.778Z" fill="#FBB95E"/>
<path d="M280.191 19.0964C280.249 18.8691 280.308 18.6477 280.366 18.4204C280.751 17.4705 280.803 16.4747 280.718 15.4578C280.69 15.0934 280.543 14.6386 281.144 14.593C281.362 15.1505 281.456 15.78 281.98 16.1721C282.625 17.7382 283.722 18.792 285.354 19.1824C286.733 19.5186 288.051 20.0445 289.394 20.4742C290.523 20.8326 291.646 21.2631 292.853 21.3054C292.937 21.315 293.021 21.3246 293.105 21.3342C293.367 21.7516 293.336 22.0807 292.814 22.1885C292.232 22.306 291.941 22.692 291.764 23.2208C291.728 23.2752 291.694 23.3357 291.659 23.3901C289.791 25.931 287.935 28.4883 286.036 31.0055C285.514 31.6972 285.09 32.3113 285.584 33.2186C285.732 33.4932 285.753 33.8983 285.419 34.2637C285.003 33.6693 284.646 33.0142 283.851 32.9449C283.863 32.8006 283.874 32.6564 283.89 32.5046C284.23 31.9965 283.758 31.802 283.495 31.6157C282.23 30.7034 280.837 30.1783 279.267 30.3231C278.752 30.1981 278.241 30.1617 277.727 30.2994C277.581 30.1524 277.435 30.1915 277.284 30.2832L276.85 30.297C275.22 30.477 273.558 30.5117 272.057 31.3118L271.485 31.4907C271.332 31.012 271.458 30.6893 271.909 30.4337C272.242 30.2484 272.538 29.9765 272.793 29.69C275.199 27.0561 277.408 24.2503 279.349 21.2342C279.773 20.5751 280.113 19.8808 280.18 19.08L280.191 19.0964ZM290.885 22.1151C287.553 21.314 283.738 22.3105 281.322 18.7162C280.501 22.8699 278.195 25.9004 275.659 28.9605C276.651 28.9001 277.476 28.8265 278.301 28.798C280.13 28.7314 282.002 28.8715 283.447 30.0821C284.407 30.8837 284.753 30.7013 285.178 29.7659C285.195 29.7357 285.22 29.7099 285.242 29.6781C287.089 27.2005 288.931 24.7305 290.885 22.1151Z" fill="black"/>
<path d="M290.885 22.1151C287.553 21.314 283.738 22.3105 281.322 18.7162C280.501 22.8699 278.195 25.9004 275.659 28.9605C276.651 28.9001 277.476 28.8265 278.301 28.798C280.13 28.7314 282.002 28.8715 283.447 30.0821C284.407 30.8837 284.753 30.7013 285.178 29.7659C285.195 29.7357 285.22 29.7099 285.242 29.6781C287.089 27.2005 288.931 24.7305 290.885 22.1151Z" fill="#FBB95E"/>
<path d="M127.897 56.4356C127.509 56.2065 127.218 55.961 127.021 55.699C126.825 55.4518 126.725 55.2103 126.721 54.9745C126.716 54.665 126.866 54.4117 127.172 54.2147C127.231 54.1842 127.312 54.1681 127.415 54.1663C127.562 54.1637 127.718 54.1905 127.881 54.2466C128.058 54.2877 128.192 54.3517 128.282 54.4386C128.671 54.7857 129.131 54.9545 129.662 54.9453C129.898 54.9412 130.236 54.8837 130.676 54.7728C131.248 54.5859 131.694 54.357 132.013 54.086C132.347 53.8148 132.738 53.3952 133.185 52.8272C133.459 52.4539 133.659 52.0818 133.785 51.711C133.926 51.3253 133.993 50.9776 133.988 50.6681C133.982 50.3292 133.896 50.0653 133.731 49.8765C133.429 49.4838 133.092 49.1948 132.721 49.0096C132.363 48.8095 131.941 48.7136 131.455 48.7221C131.028 48.7296 130.609 48.7959 130.198 48.921L128.921 49.2086C128.862 49.2244 128.781 49.2406 128.678 49.2571C128.59 49.2586 128.461 49.4747 128.291 49.9051C128.122 50.3356 127.834 51.1515 127.427 52.3527C127.133 53.2277 126.886 53.8586 126.686 54.2453C126.487 54.6174 126.306 54.8048 126.143 54.8077C125.967 54.8108 125.772 54.652 125.56 54.3313C125.515 54.2584 125.416 54.1127 125.265 53.8942C125.129 53.6755 125.059 53.4629 125.055 53.2566C125.053 53.1534 125.088 53.0275 125.159 52.8788C125.23 52.7449 125.287 52.6112 125.329 52.4778C125.385 52.3442 125.441 52.1589 125.496 51.9221C125.678 51.3439 126.205 49.9047 127.079 47.6044C127.968 45.3037 128.66 43.5668 129.155 42.3935C129.509 41.547 129.612 41.1029 129.464 41.0613C129.463 41.0171 129.44 40.9511 129.394 40.8635C129.348 40.7758 129.332 40.7097 129.346 40.6653C129.345 40.5768 129.6 40.4397 130.113 40.2538C130.641 40.0677 131 39.9877 131.193 40.0139L131.325 40.0115C131.517 40.0082 131.612 39.9697 131.611 39.896C131.64 39.8955 131.773 39.8784 132.008 39.8448C132.258 39.811 132.523 39.8064 132.804 39.8309C133.852 39.9011 134.682 40.1888 135.295 40.6941C135.908 41.1847 136.216 41.9238 136.219 42.9115C136.196 43.2952 135.991 43.8221 135.605 44.4923C135.219 45.1624 134.793 45.7153 134.329 46.151C134.097 46.3614 133.828 46.5873 133.523 46.8285C133.232 47.0547 133.043 47.198 132.955 47.2585L133.512 47.4478C134.209 47.701 134.752 48.0159 135.142 48.3924C135.532 48.7689 135.814 49.2873 135.988 49.9477C136.02 50.0946 136.037 50.227 136.039 50.3449C136.045 50.6691 135.992 51.0386 135.881 51.4533C135.785 51.8678 135.674 52.2309 135.547 52.5427C135.46 52.6327 135.388 52.7298 135.33 52.834C135.273 52.9382 135.238 53.0051 135.223 53.0349C135.21 53.0941 135.081 53.3248 134.837 53.7271C134.594 54.1147 134.378 54.4281 134.19 54.6672C133.232 55.5095 132.438 56.0541 131.809 56.301C131.194 56.5918 130.46 56.7447 129.605 56.7596C128.839 56.773 128.269 56.665 127.897 56.4356ZM129.328 47.2334C129.475 47.2013 129.769 47.1372 130.21 47.0411C130.65 46.9302 130.965 46.8363 131.155 46.7592C131.185 46.744 131.272 46.6982 131.418 46.6219C131.579 46.5307 131.739 46.4026 131.898 46.2376C132.812 45.3519 133.446 44.5594 133.803 43.8603C134.161 43.2496 134.337 42.819 134.333 42.5685C134.33 42.3916 134.246 42.2235 134.081 42.0643C133.795 41.7449 133.328 41.5909 132.68 41.6022C132.4 41.6071 132.164 41.6407 131.974 41.703C131.769 41.7655 131.615 41.8419 131.514 41.9322C131.426 42.0074 131.384 42.1261 131.387 42.2882C131.389 42.4061 131.355 42.5394 131.283 42.688C131.212 42.822 131.133 42.9339 131.046 43.0239C131.033 43.1126 130.99 43.2018 130.918 43.2915C130.861 43.381 130.817 43.4407 130.789 43.4707C130.789 43.5001 130.689 43.7009 130.489 44.073C130.304 44.4448 130.127 44.8606 129.958 45.3206C129.534 46.3747 129.324 47.0123 129.328 47.2334ZM138.665 54.5006C138.488 54.5037 138.348 54.4767 138.244 54.4195C138.139 54.3624 137.99 54.2544 137.796 54.0957C137.496 53.7913 137.262 53.4784 137.094 53.157C136.926 52.8209 136.862 52.5271 136.902 52.2758C136.944 52.1719 136.957 52.0685 136.94 51.9656C136.939 51.8624 136.937 51.7961 136.937 51.7666C136.877 51.7087 136.847 51.6723 136.847 51.6576C136.846 51.6281 136.86 51.6058 136.89 51.5905C136.919 51.5605 136.94 51.5307 136.954 51.5009C137.043 51.4994 137.071 51.4178 137.039 51.2562C137.007 51.1388 137.054 50.88 137.18 50.4798C137.305 50.0795 137.469 49.7081 137.669 49.3655C137.826 49.0974 138.056 48.7617 138.359 48.3584C138.676 47.9548 138.958 47.6476 139.205 47.4369C139.931 46.7903 140.588 46.3956 141.175 46.2526C141.468 46.1738 141.755 46.1319 142.035 46.127C142.463 46.1196 142.796 46.2317 143.036 46.4634C143.363 46.5904 143.602 46.7778 143.754 47.0258C143.905 47.2738 144.007 47.6037 144.058 48.0156C144.075 48.1038 144.085 48.251 144.088 48.4574C144.107 49.548 143.714 50.69 142.91 51.8835C142.579 52.3757 142.247 52.7722 141.913 53.0729C141.579 53.3736 141.172 53.6755 140.691 53.9788C140.428 54.1603 140.15 54.2831 139.857 54.3472C139.563 54.4113 139.166 54.4624 138.665 54.5006ZM140.873 51.7642C141.149 51.5088 141.343 51.2548 141.457 51.0022C141.585 50.7346 141.761 50.2745 141.986 49.6219C142.072 49.4877 142.111 49.2216 142.104 48.8237C142.098 48.47 142.043 48.2719 141.939 48.2295C141.864 48.1719 141.776 48.1439 141.672 48.1457C141.54 48.148 141.328 48.2549 141.037 48.4664C140.529 48.9176 140.102 49.3894 139.757 49.8819C139.426 50.3595 139.2 50.9089 139.078 51.5302C139.064 51.5894 139.058 51.678 139.06 51.7959C139.069 52.297 139.25 52.5444 139.604 52.5382C139.943 52.5323 140.366 52.2743 140.873 51.7642ZM147.301 50.9444C147.257 50.9599 147.19 50.9684 147.102 50.97C146.822 50.9749 146.592 50.8683 146.411 50.6503C146.245 50.4173 146.157 50.065 146.149 49.5934C146.143 49.225 146.201 48.7669 146.324 48.2193C146.523 47.8031 146.621 47.4918 146.618 47.2854C146.687 47.0336 146.799 46.7147 146.955 46.3286C147.11 45.9279 147.237 45.6234 147.337 45.4153C147.396 45.4143 147.454 45.3617 147.511 45.2575C147.583 45.153 147.618 45.0492 147.616 44.946C147.614 44.8134 147.634 44.6804 147.675 44.547C147.732 44.3986 147.789 44.2944 147.847 44.2344C147.846 44.1902 147.874 44.116 147.931 44.0118C147.988 43.8928 148.016 43.8113 148.016 43.767C148.015 43.7376 148.029 43.6931 148.058 43.6336C148.1 43.5592 148.122 43.4998 148.121 43.4556C148.378 43.0088 148.747 42.1694 149.227 40.9374C149.706 39.7054 149.952 38.9935 149.963 38.8017C150.016 38.4617 150.147 38.312 150.354 38.3526C150.426 38.2923 150.603 38.2598 150.883 38.2549C150.927 38.2689 151.009 38.3043 151.128 38.3612C151.247 38.4181 151.351 38.4973 151.442 38.599C151.547 38.7003 151.608 38.8246 151.625 38.9717C151.657 39.1186 151.675 39.3099 151.679 39.5457C151.668 39.767 151.606 40.0114 151.493 40.2787C151.379 40.5313 151.244 40.799 151.087 41.0819C150.93 41.3647 150.823 41.5656 150.766 41.6846L150.488 42.2202C150.259 42.6369 150.145 42.8822 150.147 42.9559C150.148 43.0148 150.113 43.126 150.042 43.2894C149.971 43.4381 149.914 43.5644 149.871 43.6683C149.757 43.862 149.636 44.1294 149.51 44.4707C149.398 44.8118 149.342 45.0191 149.344 45.0928C149.329 45.1225 149.308 45.1745 149.28 45.2487C149.266 45.3227 149.231 45.3896 149.173 45.4496C149.129 45.4504 149.1 45.4877 149.086 45.5617C149.073 45.6209 149.066 45.6652 149.067 45.6947C149.068 45.7684 149.034 45.9164 148.964 46.1388C148.894 46.3611 148.795 46.6061 148.667 46.8737C148.191 48.3121 147.936 49.3337 147.902 49.9388C147.878 50.2488 147.808 50.4711 147.693 50.6058C147.592 50.7403 147.461 50.8531 147.301 50.9444ZM146.189 54.3914C145.911 54.5142 145.676 54.5773 145.484 54.5806C145.263 54.5845 145.011 54.4857 144.727 54.2843C144.502 54.0671 144.388 53.8479 144.384 53.6268C144.378 53.2584 144.644 52.8852 145.183 52.5072C145.503 52.2952 145.738 52.1879 145.885 52.1854C145.988 52.1836 146.181 52.2392 146.463 52.3522C146.91 52.6245 147.136 52.9228 147.142 53.247C147.149 53.6597 146.831 54.0411 146.189 54.3914Z" fill="black"/>
<path d="M257.584 73.6406C257.402 73.3177 257.295 73.0224 257.263 72.7548C257.225 72.4978 257.253 72.2844 257.347 72.1145C257.471 71.8916 257.682 71.7729 257.982 71.7584C258.036 71.7607 258.1 71.7825 258.174 71.8237C258.281 71.8825 258.38 71.9656 258.474 72.0728C258.583 72.1752 258.652 72.276 258.681 72.375C258.816 72.7828 259.074 73.0927 259.456 73.3045C259.626 73.3987 259.891 73.4969 260.251 73.5991C260.735 73.7012 261.147 73.7215 261.487 73.6598C261.837 73.6041 262.289 73.4657 262.841 73.2447C263.19 73.0911 263.486 72.9081 263.729 72.6956C263.988 72.4784 264.179 72.2583 264.303 72.0354C264.438 71.7912 264.486 71.5677 264.445 71.3649C264.392 70.9606 264.271 70.6158 264.082 70.3307C263.909 70.0408 263.648 69.7987 263.298 69.6045C262.99 69.4339 262.664 69.3086 262.319 69.2288L261.29 68.9079C261.241 68.8949 261.177 68.8732 261.097 68.8426C261.033 68.8073 260.852 68.9083 260.554 69.1456C260.256 69.3828 259.715 69.8461 258.93 70.5354C258.36 71.0382 257.924 71.3865 257.622 71.5801C257.327 71.7632 257.12 71.8223 257.004 71.7576C256.876 71.687 256.803 71.4937 256.784 71.1777C256.781 71.107 256.771 70.9625 256.753 70.7444C256.746 70.5322 256.783 70.3518 256.866 70.2031C256.907 70.1288 256.984 70.0533 257.096 69.9765C257.202 69.9104 257.297 69.8384 257.382 69.7605C257.477 69.6885 257.593 69.5793 257.73 69.433C258.098 69.0954 259.067 68.2863 260.637 67.0055C262.218 65.7306 263.427 64.7768 264.263 64.144C264.864 63.686 265.12 63.4116 265.032 63.3209C265.05 63.2891 265.06 63.2324 265.064 63.1511C265.067 63.0697 265.083 63.0161 265.111 62.9901C265.146 62.9264 265.385 62.9338 265.827 63.0124C266.28 63.0969 266.57 63.188 266.696 63.2857L266.792 63.3387C266.93 63.4152 267.013 63.4269 267.043 63.3738C267.064 63.3856 267.166 63.4279 267.347 63.5009C267.539 63.5797 267.731 63.6856 267.92 63.8187C268.639 64.3002 269.113 64.8474 269.342 65.4603C269.577 66.0626 269.493 66.7164 269.088 67.4219C268.913 67.6862 268.551 67.9777 267.999 68.2966C267.448 68.6155 266.917 68.8347 266.406 68.9543C266.154 69.0087 265.869 69.0591 265.552 69.1054C265.251 69.147 265.058 69.1713 264.97 69.1785L265.289 69.5425C265.682 70.0102 265.94 70.4586 266.063 70.8877C266.186 71.3167 266.174 71.8025 266.026 72.345C265.988 72.4629 265.946 72.5644 265.899 72.6493C265.769 72.8829 265.579 73.1248 265.33 73.375C265.091 73.6311 264.862 73.8441 264.642 74.0141C264.543 74.0425 264.452 74.0821 264.368 74.1328C264.285 74.1836 264.232 74.2167 264.209 74.232C264.175 74.2686 263.988 74.3802 263.649 74.5668C263.315 74.7428 263.033 74.8775 262.8 74.9709C261.77 75.177 260.98 75.2385 260.429 75.1553C259.871 75.1098 259.284 74.9164 258.669 74.5751C258.117 74.2691 257.755 73.9576 257.584 73.6406ZM262.394 67.667C262.512 67.7047 262.748 67.7799 263.101 67.8927C263.461 67.995 263.725 68.0578 263.892 68.0812C263.919 68.0824 264.001 68.0858 264.136 68.0916C264.288 68.0926 264.455 68.0671 264.637 68.0151C265.653 67.7594 266.432 67.4557 266.974 67.1038C267.481 66.8156 267.784 66.5813 267.884 66.4008C267.955 66.2734 267.964 66.1189 267.912 65.9374C267.84 65.592 267.57 65.2899 267.103 65.0309C266.901 64.9191 266.719 64.8462 266.558 64.8121C266.386 64.7722 266.245 64.7635 266.135 64.786C266.042 64.8038 265.963 64.8711 265.898 64.9878C265.851 65.0728 265.772 65.1536 265.66 65.2304C265.554 65.2965 265.451 65.3438 265.352 65.3721C265.306 65.43 265.239 65.476 265.151 65.5103C265.073 65.5504 265.018 65.5753 264.985 65.5847C264.973 65.606 264.819 65.7081 264.523 65.8911C264.238 66.08 263.941 66.3038 263.631 66.5623C262.894 67.1395 262.482 67.5078 262.394 67.667ZM266.06 76.6946C265.933 76.624 265.844 76.5469 265.793 76.4632C265.742 76.3795 265.68 76.2411 265.607 76.0478C265.518 75.7071 265.48 75.3876 265.493 75.0893C265.512 74.7804 265.587 74.5445 265.719 74.3817C265.792 74.325 265.844 74.2566 265.874 74.1764C265.915 74.102 265.942 74.0543 265.954 74.033C265.935 73.967 265.928 73.9287 265.934 73.9181C265.946 73.8969 265.965 73.8868 265.992 73.888C266.025 73.8785 266.053 73.8661 266.075 73.8508C266.139 73.8861 266.193 73.8394 266.236 73.7109C266.262 73.6142 266.402 73.449 266.657 73.2153C266.911 72.9816 267.18 72.7838 267.464 72.622C267.687 72.4957 267.989 72.3509 268.371 72.1879C268.764 72.0307 269.091 71.9278 269.354 71.8792C270.138 71.7169 270.769 71.7057 271.247 71.8456C271.488 71.9102 271.71 71.9984 271.912 72.1102C272.22 72.2809 272.412 72.4982 272.487 72.7623C272.668 72.9873 272.761 73.2195 272.767 73.4588C272.773 73.6982 272.71 73.9753 272.577 74.2902C272.552 74.3598 272.499 74.4689 272.417 74.6176C271.981 75.4032 271.231 76.056 270.165 76.5758C269.727 76.7908 269.327 76.9368 268.965 77.0137C268.603 77.0907 268.188 77.1383 267.72 77.1564C267.458 77.1779 267.209 77.151 266.973 77.0758C266.738 77.0005 266.433 76.8735 266.06 76.6946ZM268.762 75.6521C269.064 75.5835 269.307 75.4824 269.492 75.349C269.693 75.2109 270.009 74.9553 270.437 74.5823C270.554 74.5221 270.692 74.3486 270.851 74.062C270.992 73.8072 271.034 73.6432 270.978 73.5702C270.948 73.4983 270.896 73.4417 270.822 73.4005C270.726 73.3476 270.531 73.3366 270.236 73.3675C269.688 73.48 269.19 73.6409 268.741 73.85C268.308 74.0544 267.921 74.353 267.578 74.746C267.544 74.7826 267.503 74.8433 267.456 74.9283C267.256 75.2892 267.283 75.5404 267.538 75.6816C267.782 75.817 268.19 75.8071 268.762 75.6521ZM273.684 77.7141C273.646 77.707 273.595 77.6859 273.531 77.6505C273.33 77.5387 273.209 77.3679 273.17 77.138C273.147 76.9034 273.23 76.6162 273.419 76.2765C273.566 76.011 273.796 75.7084 274.109 75.3685C274.423 75.1536 274.621 74.9719 274.703 74.8232C274.856 74.6722 275.068 74.491 275.337 74.2797C275.613 74.0578 275.829 73.8931 275.986 73.7856C276.028 73.8092 276.092 73.7956 276.175 73.7448C276.269 73.6999 276.337 73.6403 276.378 73.566C276.431 73.4704 276.5 73.3837 276.585 73.3058C276.686 73.2232 276.77 73.1724 276.836 73.1534C276.854 73.1216 276.904 73.0803 276.988 73.0295C277.078 72.9681 277.131 72.9215 277.149 72.8896C277.161 72.8684 277.189 72.8424 277.234 72.8117C277.295 72.7763 277.334 72.7427 277.352 72.7108C277.72 72.4982 278.328 72.0514 279.178 71.3703C280.027 70.6891 280.495 70.2825 280.583 70.1504C280.76 69.9297 280.915 69.8765 281.046 69.9908C281.122 69.9777 281.262 70.0271 281.463 70.1389C281.489 70.1672 281.533 70.2261 281.594 70.3157C281.656 70.4052 281.698 70.5048 281.72 70.6144C281.753 70.7299 281.746 70.8437 281.698 70.9558C281.66 71.0737 281.594 71.2176 281.5 71.3875C281.401 71.5409 281.256 71.6896 281.065 71.8336C280.88 71.967 280.673 72.1022 280.445 72.2392C280.216 72.3762 280.057 72.4754 279.968 72.5368L279.549 72.8042C279.214 73.0073 279.032 73.1354 279.003 73.1885C278.979 73.231 278.908 73.2959 278.791 73.3833C278.679 73.46 278.586 73.5267 278.513 73.5834C278.352 73.6743 278.155 73.8154 277.925 74.0066C277.704 74.2037 277.579 74.3288 277.55 74.3819C277.528 74.3973 277.491 74.4256 277.44 74.4669C277.4 74.5141 277.347 74.5472 277.281 74.5661C277.25 74.5485 277.214 74.5632 277.174 74.6104C277.139 74.647 277.116 74.6759 277.105 74.6972C277.075 74.7502 276.99 74.8417 276.848 74.9715C276.707 75.1014 276.536 75.2353 276.334 75.3735C275.402 76.2032 274.8 76.8269 274.527 77.2446C274.382 77.4558 274.241 77.5856 274.103 77.6341C273.975 77.6884 273.836 77.7151 273.684 77.7141ZM271.471 79.7147C271.222 79.6878 271.029 79.6361 270.891 79.5596C270.732 79.4713 270.592 79.2969 270.473 79.0365C270.402 78.789 270.411 78.5856 270.499 78.4263C270.646 78.1609 270.99 78.0043 271.53 77.9566C271.846 77.9375 272.057 77.9573 272.163 78.0162C272.237 78.0574 272.352 78.1763 272.506 78.3731C272.713 78.7514 272.752 79.0573 272.622 79.2909C272.457 79.5882 272.074 79.7294 271.471 79.7147Z" fill="black"/>
<path d="M169.488 96.6451C169.103 96.7438 168.768 96.7727 168.482 96.7317C168.205 96.6997 167.992 96.6115 167.843 96.4669C167.646 96.2772 167.582 96.0253 167.65 95.7114C167.667 95.6559 167.708 95.5954 167.771 95.5299C167.861 95.4364 167.975 95.3562 168.112 95.2894C168.248 95.2043 168.372 95.1607 168.482 95.1588C168.941 95.1324 169.334 94.9508 169.659 94.614C169.804 94.4643 169.979 94.2175 170.184 93.8735C170.424 93.4003 170.56 92.9794 170.59 92.6109C170.629 92.2331 170.611 91.7275 170.536 91.0942C170.474 90.6905 170.366 90.3337 170.214 90.0236C170.061 89.6952 169.886 89.4361 169.69 89.2463C169.474 89.0385 169.256 88.9274 169.035 88.9128C168.602 88.856 168.212 88.8858 167.864 89.0022C167.516 89.1003 167.193 89.3037 166.895 89.6124C166.633 89.8838 166.413 90.1865 166.235 90.5208L165.617 91.4974C165.59 91.5438 165.55 91.6043 165.496 91.6788C165.442 91.735 165.496 91.9502 165.659 92.3245C165.822 92.6987 166.152 93.3875 166.647 94.3906C167.01 95.1201 167.249 95.6678 167.366 96.0337C167.473 96.3906 167.477 96.6204 167.378 96.7234C167.27 96.8356 167.049 96.8579 166.717 96.7901C166.643 96.773 166.491 96.7434 166.26 96.7015C166.038 96.6502 165.862 96.5613 165.731 96.4348C165.666 96.3715 165.609 96.2713 165.56 96.1342C165.521 96.0061 165.473 95.8874 165.416 95.778C165.368 95.6593 165.287 95.5089 165.174 95.3269C164.926 94.8529 164.357 93.6257 163.467 91.6453C162.587 89.6555 161.935 88.1399 161.512 87.0987C161.204 86.3499 160.991 86.0086 160.873 86.0751C160.845 86.048 160.789 86.0214 160.706 85.9952C160.623 85.9691 160.572 85.9378 160.553 85.9013C160.496 85.8471 160.57 85.6021 160.774 85.1662C160.987 84.721 161.162 84.4466 161.298 84.343L161.379 84.2588C161.497 84.1372 161.532 84.0538 161.485 84.0086C161.503 83.9899 161.575 83.8967 161.701 83.7289C161.836 83.5518 161.999 83.3834 162.189 83.2237C162.887 82.6136 163.584 82.2749 164.282 82.2076C164.971 82.1312 165.624 82.4003 166.242 83.015C166.467 83.2686 166.668 83.725 166.845 84.3842C167.022 85.0433 167.102 85.6536 167.084 86.215C167.071 86.4912 167.044 86.7998 167.004 87.1408C166.963 87.4635 166.935 87.6709 166.918 87.7632L167.383 87.5343C167.976 87.2572 168.512 87.1145 168.99 87.1062C169.468 87.0978 169.967 87.2455 170.488 87.5491C170.599 87.6208 170.693 87.6927 170.767 87.765C170.973 87.9638 171.171 88.2271 171.361 88.5549C171.559 88.8734 171.716 89.1696 171.832 89.4435C171.833 89.5538 171.849 89.6593 171.878 89.76C171.908 89.8607 171.927 89.9247 171.937 89.9521C171.965 89.9976 172.029 90.2219 172.128 90.6249C172.218 91.0188 172.279 91.3489 172.311 91.6151C172.239 92.7385 172.083 93.5737 171.844 94.1205C171.642 94.6851 171.28 95.2387 170.756 95.7814C170.286 96.2679 169.863 96.5558 169.488 96.6451ZM164.639 90.0105C164.711 89.8989 164.854 89.6757 165.069 89.3408C165.275 88.9969 165.413 88.7415 165.483 88.5747C165.492 88.5469 165.518 88.4637 165.562 88.325C165.605 88.1679 165.625 87.9881 165.621 87.7858C165.639 86.6634 165.54 85.7729 165.326 85.1143C165.169 84.51 165.01 84.1311 164.851 83.9775C164.739 83.869 164.582 83.8166 164.379 83.8201C164.002 83.7991 163.614 83.9945 163.217 84.4061C163.045 84.5839 162.919 84.7516 162.839 84.9094C162.75 85.0765 162.702 85.2199 162.695 85.3396C162.688 85.4409 162.735 85.5413 162.838 85.6407C162.913 85.713 162.975 85.8177 163.023 85.9548C163.062 86.0829 163.083 86.2021 163.085 86.3124C163.132 86.376 163.161 86.4583 163.172 86.5593C163.192 86.6509 163.202 86.7151 163.203 86.7519C163.221 86.77 163.284 86.9574 163.392 87.3143C163.508 87.6618 163.657 88.0317 163.839 88.424C164.232 89.3462 164.499 89.875 164.639 90.0105ZM174.999 88.7193C174.891 88.8315 174.786 88.9023 174.685 88.9317C174.585 88.961 174.424 88.9868 174.204 89.0091C173.827 89.0065 173.485 88.9572 173.18 88.8614C172.866 88.7565 172.642 88.6132 172.51 88.4316C172.472 88.3402 172.416 88.2676 172.341 88.2138C172.276 88.1505 172.233 88.1099 172.215 88.0918C172.141 88.0931 172.1 88.0892 172.09 88.0802C172.072 88.0621 172.067 88.0392 172.075 88.0114C172.075 87.9747 172.07 87.9426 172.06 87.9151C172.114 87.859 172.081 87.7906 171.96 87.7099C171.867 87.6564 171.735 87.4655 171.563 87.1374C171.392 86.8092 171.262 86.4758 171.173 86.137C171.104 85.8714 171.038 85.5185 170.976 85.078C170.922 84.6283 170.906 84.2606 170.929 83.9751C170.978 83.1188 171.141 82.4629 171.419 82.0073C171.553 81.775 171.705 81.57 171.877 81.3923C172.139 81.1209 172.417 80.9827 172.711 80.9776C172.994 80.8531 173.261 80.8208 173.51 80.8808C173.759 80.9409 174.029 81.0834 174.318 81.3083C174.383 81.3531 174.481 81.4388 174.612 81.5653C175.304 82.2338 175.772 83.1915 176.014 84.4382C176.115 84.9515 176.155 85.4061 176.135 85.802C176.114 86.1979 176.048 86.6406 175.937 87.13C175.887 87.4068 175.79 87.6569 175.647 87.8801C175.503 88.1034 175.287 88.3831 174.999 88.7193ZM174.669 85.6344C174.682 85.3031 174.645 85.0232 174.558 84.7948C174.471 84.5479 174.294 84.1509 174.027 83.6037C173.997 83.4662 173.855 83.2755 173.603 83.0316C173.378 82.8148 173.22 82.7255 173.129 82.7639C173.046 82.7746 172.973 82.8126 172.91 82.8781C172.829 82.9623 172.763 83.1612 172.714 83.4748C172.678 84.0733 172.706 84.6339 172.798 85.1566C172.89 85.6609 173.091 86.1449 173.403 86.6085C173.431 86.654 173.483 86.7129 173.558 86.7852C173.876 87.0924 174.143 87.1337 174.36 86.9092C174.568 86.694 174.671 86.2691 174.669 85.6344ZM178.168 81.1127C178.15 81.1498 178.114 81.1964 178.06 81.2525C177.888 81.4303 177.678 81.5075 177.429 81.4843C177.18 81.4426 176.906 81.2773 176.607 80.9882C176.373 80.7623 176.123 80.4401 175.859 80.0216C175.723 79.6377 175.59 79.3824 175.459 79.2559C175.345 79.0556 175.216 78.7865 175.072 78.4487C174.919 78.1018 174.808 77.8324 174.741 77.6404C174.777 77.603 174.78 77.5339 174.751 77.4333C174.731 77.3233 174.688 77.2366 174.622 77.1734C174.538 77.0921 174.467 76.9967 174.41 76.8873C174.353 76.7596 174.324 76.6589 174.322 76.5853C174.294 76.5582 174.265 76.4943 174.236 76.3937C174.197 76.284 174.164 76.2156 174.136 76.1885C174.117 76.1704 174.098 76.1339 174.079 76.0791C174.059 76.0058 174.035 75.9557 174.007 75.9286C173.889 75.4891 173.595 74.7354 173.126 73.6674C172.657 72.5994 172.366 72.002 172.253 71.8752C172.074 71.63 172.062 71.4554 172.216 71.3516C172.224 71.2686 172.314 71.1383 172.486 70.9605C172.522 70.9415 172.595 70.9126 172.705 70.8739C172.815 70.8352 172.929 70.8194 173.049 70.8265C173.178 70.8243 173.293 70.8637 173.396 70.9447C173.508 71.0163 173.638 71.1244 173.788 71.2689C173.919 71.4138 174.033 71.605 174.129 71.8425C174.216 72.0709 174.298 72.3224 174.377 72.597C174.455 72.8716 174.514 73.0637 174.552 73.1734L174.713 73.6811C174.83 74.0838 174.913 74.3077 174.959 74.3529C174.997 74.389 175.044 74.4802 175.102 74.6263C175.15 74.7634 175.194 74.8777 175.232 74.969C175.282 75.1613 175.373 75.4034 175.507 75.6954C175.65 75.9781 175.745 76.142 175.792 76.1872C175.801 76.2146 175.82 76.2602 175.849 76.3241C175.887 76.3787 175.906 76.4427 175.908 76.5163C175.881 76.5443 175.886 76.5856 175.924 76.6402C175.952 76.6857 175.976 76.7174 175.994 76.7355C176.041 76.7807 176.112 76.8944 176.207 77.0767C176.302 77.259 176.394 77.4736 176.481 77.7204C177.081 78.9149 177.559 79.7114 177.916 80.1099C178.094 80.3183 178.189 80.5006 178.201 80.6568C178.222 80.8036 178.211 80.9556 178.168 81.1127ZM179.625 83.9571C179.528 84.2071 179.421 84.3929 179.303 84.5146C179.168 84.6549 178.949 84.7507 178.646 84.802C178.37 84.8068 178.162 84.7414 178.022 84.6059C177.788 84.38 177.721 83.9811 177.822 83.4091C177.889 83.0767 177.968 82.8638 178.059 82.7702C178.122 82.7047 178.277 82.6193 178.523 82.5138C178.972 82.4048 179.3 82.4496 179.505 82.6484C179.767 82.9014 179.807 83.3376 179.625 83.9571Z" fill="black"/>
</g>
<defs>
<clipPath id="clip0_331_10484">
<rect width="424" height="214" fill="white"/>
</clipPath>
</defs>
</svg>
