<svg width="121" height="53" viewBox="0 0 121 53" fill="none" xmlns="http://www.w3.org/2000/svg">
<g clip-path="url(#clip0_331_7798)">
<path d="M84.04 31.015C83.305 30.68 82.39 30.85 81.51 30.71C81.155 30.655 80.99 30.77 80.78 31.025C79.545 32.485 78.55 34.135 77.245 35.55C74.775 38.23 71.76 39.99 68.24 40.84C63.26 42.04 58.25 42.135 53.225 41.11C47.14 39.865 41.945 37.13 38.16 32.065C36.26 29.525 35.125 26.625 34.19 23.625C33.025 19.88 32.185 16.045 30.89 12.345C30.305 10.68 29.795 8.98503 29.08 7.36503C28.975 7.12503 28.89 6.84003 28.905 6.58503C28.935 6.12503 29.205 5.88503 29.69 6.04003C29.84 6.08503 30.005 6.15003 30.105 6.26003C31.085 7.31503 32.455 7.41503 33.72 7.72003C39.605 9.15003 45.18 11.24 49.81 15.31C51.115 16.455 52.46 17.56 53.61 18.875C53.94 19.255 54.185 19.06 54.48 18.875C56.09 17.89 57.725 16.95 59.51 16.32C62.91 15.12 66.36 14.68 69.905 15.655C72.34 16.325 74.325 17.71 76.1 19.45C77.925 21.24 79.45 23.29 81.085 25.245C82.155 26.525 83.235 27.805 84.465 28.935C84.645 29.1 84.815 29.295 84.945 29.5C85.13 29.79 85.46 30.055 85.24 30.465C85.01 30.895 84.61 31.02 84.035 31.015H84.04ZM75.225 21.42L75.24 21.435C72.8 18.335 69.52 16.975 65.665 17.055C62.505 17.12 59.58 18.175 56.805 19.665C55.975 20.11 55.115 20.51 54.275 20.94C53.62 21.275 53.08 21.14 52.605 20.59C52.22 20.145 51.835 19.705 51.42 19.295C47.945 15.84 43.975 13.125 39.405 11.335C38.455 10.965 37.505 10.555 36.465 10.455C35.46 9.94003 34.36 9.71503 33.275 9.46003C32.965 9.39003 32.57 9.02503 32.36 9.35503C32.17 9.66503 32.625 9.97003 32.77 10.29C32.805 10.37 32.88 10.43 32.935 10.5C34.05 11.985 35.25 13.39 36.475 14.78C39.92 18.7 43.51 22.465 48 25.22C49.955 26.42 52.085 27.135 54.405 26.93C56.04 26.785 57.66 26.485 59.285 26.215C61.445 25.86 63.6 25.925 65.76 26.16C67.73 26.375 69.68 26.71 71.625 27.105C73.21 27.43 74.8 27.725 76.39 28.035C77.955 28.34 79.52 28.66 81.09 28.96C81.255 28.99 81.49 29.065 81.59 28.89C81.71 28.67 81.48 28.53 81.355 28.385C80.655 27.565 79.94 26.76 79.245 25.94C77.985 24.46 76.775 22.925 75.355 21.585C75.31 21.525 75.27 21.465 75.225 21.41V21.42ZM33.605 14.335C33.85 15.215 34.075 16.1 34.35 16.975C35.015 19.085 35.47 21.26 36.195 23.355C36.88 25.33 37.505 27.31 38.57 29.135C39.885 31.38 41.585 33.265 43.635 34.84C45.685 36.415 47.93 37.695 50.395 38.415C52.84 39.13 55.345 39.665 57.935 39.765C61.365 39.9 64.715 39.64 68.05 38.8C70.85 38.1 73.26 36.805 75.285 34.755C76.455 33.57 77.475 32.265 78.45 30.92C78.72 30.55 78.66 30.335 78.16 30.375C77.535 30.425 76.965 30.2 76.37 30.08C74.57 29.71 72.77 29.335 70.97 28.96C68.295 28.395 65.59 28.07 62.86 27.965C60.455 27.87 58.12 28.47 55.77 28.855C54.035 29.14 52.325 29.035 50.675 28.6C48.23 27.96 46.085 26.63 44.16 25.03C40.965 22.37 38.095 19.365 35.325 16.26C34.76 15.625 34.355 14.87 33.605 14.345V14.335Z" fill="black"/>
<path d="M106.805 35.72C106.72 34.14 106.655 31.98 106.28 29.835C106.14 29.05 105.76 28.675 105.11 28.45C103.46 27.875 101.83 27.22 100.14 26.795C98.0051 26.26 95.8351 25.855 93.6351 25.64C93.2201 25.6 92.5601 25.705 92.6001 25.07C92.6301 24.505 93.2551 24.55 93.6951 24.54C96.4051 24.48 99.0301 24.97 101.615 25.74C102.755 26.08 103.89 26.43 104.975 26.92C105.09 26.975 105.235 27.035 105.36 26.93C105.465 26.84 105.385 26.725 105.355 26.625C104.235 22.785 102.565 19.225 100.05 16.09C97.7901 13.275 95.1001 11.005 91.7351 9.59503C91.6501 9.56003 91.5701 9.51503 91.4951 9.47003C91.2501 9.31003 90.9401 9.16003 91.1201 8.79003C91.2751 8.47503 91.5601 8.47003 91.8751 8.56503C93.2201 8.97003 94.4851 9.54503 95.6901 10.275C98.7951 12.16 101.08 14.835 103.01 17.845C104.76 20.57 105.95 23.545 106.835 26.65C107.06 27.45 107.41 27.98 108.26 28.375C112.295 30.23 115.87 32.75 118.78 36.15C119.335 36.8 119.875 37.47 120.255 38.25C120.395 38.54 120.65 38.89 120.285 39.16C119.95 39.41 119.695 39.085 119.48 38.875C118.26 37.675 117.175 36.335 115.88 35.2C113.545 33.155 110.99 31.44 108.255 29.985C108.14 29.925 108.01 29.82 107.88 29.905C107.685 30.03 107.785 30.23 107.8 30.395C108.045 33.095 108.3 35.79 108.17 38.505C108.06 40.74 107.75 42.955 107.155 45.11C106.88 46.115 106.375 47.055 105.955 48.02C105.865 48.22 105.725 48.41 105.57 48.57C105.39 48.75 105.155 48.865 104.895 48.75C104.59 48.615 104.675 48.365 104.715 48.11C104.91 46.84 104.81 46.7 103.595 46.23C102.39 45.765 101.125 45.425 100 44.765C99.2001 44.295 98.5151 43.705 98.6801 42.615C98.8001 41.805 99.3301 41.3 99.9651 40.88C101.595 39.79 103.75 40.235 105.355 41.3C106.45 42.03 106.445 42.065 106.655 40.775C106.9 39.3 106.875 37.805 106.81 35.735L106.805 35.72ZM102.295 41.41C101.955 41.41 101.635 41.455 101.3 41.56C100.675 41.755 100.11 42.055 100.075 42.73C100.04 43.365 100.68 43.555 101.155 43.78C102.145 44.25 103.225 44.51 104.185 45.065C105.105 45.595 105.125 45.595 105.565 44.63C105.705 44.33 105.745 43.985 105.82 43.66C105.865 43.47 105.795 43.28 105.67 43.16C104.725 42.225 103.695 41.45 102.29 41.415L102.295 41.41Z" fill="black"/>
<path d="M12.0047 35.41C11.1397 35.435 10.3897 35.42 9.6747 35.185C9.2047 35.03 8.9347 35.215 8.6397 35.565C7.0047 37.51 5.9797 39.765 5.2247 42.165C5.1247 42.485 4.9897 42.8 4.8247 43.09C4.7297 43.26 4.5397 43.415 4.3247 43.375C4.0797 43.33 4.0747 43.095 4.0447 42.89C3.9447 42.19 4.1947 41.535 4.4047 40.915C5.0847 38.89 5.9047 36.915 7.3097 35.26C7.9197 34.54 8.0897 33.9 7.6697 32.955C6.8997 31.23 7.0397 29.37 7.4347 27.575C8.4747 22.875 11.4247 19.655 15.6247 17.545C18.0897 16.305 20.7797 15.895 23.5297 15.9C24.0947 15.9 24.6597 15.95 25.1647 16.255C25.3197 16.35 25.5247 16.41 25.4947 16.635C25.4597 16.89 25.2297 16.92 25.0247 16.94C24.3947 17.005 23.7647 17.05 23.1347 17.115C20.1047 17.44 17.1697 18.075 14.5747 19.785C12.1147 21.405 10.1147 23.435 9.0947 26.275C8.4847 27.97 8.2847 29.73 8.4597 31.525C8.4797 31.725 8.4497 32.025 8.7497 32.07C8.9997 32.105 9.0547 31.845 9.1697 31.69C10.8547 29.425 12.9647 27.78 15.8247 27.325C17.2697 27.095 18.6447 27.305 19.6347 28.52C20.4997 29.585 20.4097 31.235 19.5597 32.425C18.6397 33.71 17.3097 34.355 15.8697 34.77C14.5747 35.145 13.2547 35.49 11.9997 35.42L12.0047 35.41ZM11.3447 34.07C12.7147 34.105 14.0497 33.88 15.3297 33.445C16.4397 33.065 17.6097 32.72 18.4097 31.75C18.8847 31.175 19.2847 30.555 18.8997 29.79C18.4847 28.955 17.8047 28.515 16.8297 28.565C15.7347 28.615 14.7197 28.955 13.7647 29.45C12.0297 30.345 10.5847 31.56 9.6747 33.34C9.4397 33.805 9.6397 33.97 10.0547 34.01C10.4797 34.05 10.9097 34.055 11.3397 34.075L11.3447 34.07Z" fill="black"/>
<path d="M0 29.98C0.075 27.095 0.67 24.31 1.685 21.62C3.475 16.875 6.035 12.59 9.455 8.84003C12.265 5.75503 15.42 3.08503 19.13 1.13003C20.055 0.64503 21.01 0.20503 22.06 0.0500302C22.215 0.0250302 22.37 -0.00996982 22.525 0.00503018C22.85 0.0300302 23.26 -0.0149698 23.325 0.44003C23.385 0.86003 23.005 0.94503 22.725 1.06003C15.455 3.98003 10.155 9.16503 6 15.65C3.89 18.945 2.445 22.525 1.69 26.365C1.38 27.93 1.185 29.525 1.095 31.125C1.065 31.615 1.065 32.3 0.455 32.27C0.025 32.25 0.03 31.575 0.01 31.135C-0.005 30.75 0.01 30.37 0.01 29.985L0 29.98Z" fill="black"/>
<path d="M114.645 51.69C114.61 51.93 114.5 52.085 114.315 52.205C114.1 52.345 113.88 52.375 113.7 52.19C113.45 51.93 113.205 51.665 112.995 51.375C111.61 49.44 110.05 47.665 108.25 46.1C107.915 45.805 107.325 45.415 107.705 44.955C108.02 44.575 108.445 45.135 108.8 45.325C110.98 46.515 112.515 48.375 113.92 50.35C114.215 50.765 114.415 51.25 114.645 51.69Z" fill="black"/>
<path d="M33.605 14.335C34.35 14.86 34.76 15.615 35.325 16.25C38.095 19.355 40.96 22.36 44.16 25.02C46.085 26.62 48.23 27.945 50.675 28.59C52.325 29.025 54.035 29.13 55.77 28.845C58.12 28.46 60.455 27.86 62.86 27.955C65.59 28.06 68.295 28.39 70.97 28.95C72.77 29.33 74.57 29.7 76.37 30.07C76.96 30.19 77.535 30.42 78.16 30.365C78.66 30.325 78.715 30.54 78.45 30.91C77.475 32.255 76.455 33.56 75.285 34.745C73.265 36.795 70.85 38.09 68.05 38.79C64.715 39.625 61.36 39.885 57.935 39.755C55.34 39.655 52.84 39.12 50.395 38.405C47.93 37.685 45.685 36.405 43.635 34.83C41.585 33.255 39.885 31.37 38.57 29.125C37.505 27.305 36.88 25.32 36.195 23.345C35.47 21.25 35.015 19.075 34.35 16.965C34.075 16.095 33.855 15.205 33.605 14.325V14.335ZM58.835 39.195C60.705 39.155 62.555 38.93 64.39 38.55C66.265 38.16 68.08 37.56 69.83 36.795C70.5 36.505 71.195 36.195 71.695 35.615C71.815 35.475 71.925 35.33 71.81 35.135C71.695 34.945 71.51 34.955 71.33 34.995C71.2 35.025 71.075 35.085 70.95 35.135C68.655 36.07 66.29 36.755 63.86 37.255C61.625 37.715 59.36 37.885 57.1 38.105C56.82 38.135 56.55 38.145 56.53 38.525C56.51 38.88 56.73 38.98 57.02 39.05C57.62 39.2 58.225 39.19 58.835 39.19V39.195Z" fill="#DD2935"/>
<path d="M75.3546 21.595C76.7746 22.935 77.9796 24.465 79.2446 25.95C79.9446 26.77 80.6546 27.575 81.3546 28.395C81.4796 28.54 81.7096 28.68 81.5896 28.9C81.4896 29.075 81.2546 29.005 81.0896 28.97C79.5246 28.67 77.9596 28.35 76.3896 28.045C74.7996 27.735 73.2096 27.44 71.6246 27.115C69.6846 26.72 67.7296 26.385 65.7596 26.17C63.5996 25.935 61.4446 25.87 59.2846 26.225C57.6646 26.49 56.0396 26.79 54.4046 26.94C52.0846 27.15 49.9546 26.43 47.9996 25.23C43.5096 22.475 39.9196 18.71 36.4746 14.79C35.2496 13.4 34.0496 11.99 32.9346 10.51C32.8796 10.44 32.8046 10.38 32.7696 10.3C32.6246 9.98003 32.1696 9.67003 32.3596 9.36503C32.5646 9.03003 32.9646 9.39503 33.2746 9.47003C34.3596 9.72503 35.4596 9.95003 36.4646 10.465C36.8796 10.89 37.3996 11.16 37.9196 11.43C42.9946 14.045 47.5496 17.335 51.3396 21.645C51.9496 22.34 52.5596 23.035 53.2546 23.65C53.5196 23.885 53.6696 23.87 53.9196 23.625C55.4296 22.16 57.1946 21.105 59.1596 20.36C63.5596 18.69 67.9496 18.59 72.3596 20.345C73.3146 20.725 74.2146 21.25 75.2446 21.445L75.2296 21.43C75.2746 21.49 75.3146 21.55 75.3596 21.605L75.3546 21.595Z" fill="#DD2935"/>
<path d="M58.8351 39.195C58.2251 39.195 57.6201 39.205 57.0201 39.055C56.7301 38.985 56.5101 38.885 56.5301 38.53C56.5501 38.15 56.8201 38.14 57.1001 38.11C59.3601 37.885 61.6251 37.715 63.8601 37.26C66.2901 36.76 68.6551 36.08 70.9501 35.14C71.0751 35.09 71.2001 35.03 71.3301 35C71.5101 34.96 71.6951 34.945 71.8101 35.14C71.9301 35.335 71.8201 35.48 71.6951 35.62C71.1901 36.2 70.5001 36.505 69.8301 36.8C68.0801 37.565 66.2651 38.165 64.3901 38.555C62.5551 38.935 60.7051 39.16 58.8351 39.2V39.195Z" fill="black"/>
</g>
<defs>
<clipPath id="clip0_331_7798">
<rect width="120.465" height="52.32" fill="white"/>
</clipPath>
</defs>
</svg>
