<svg width="22" height="33" viewBox="0 0 22 33" fill="none" xmlns="http://www.w3.org/2000/svg">
<path d="M13.2392 13.0954C11.8485 12.8992 10.4299 13.1142 9.01706 13.7134C9.92971 10.831 11.3719 8.34979 13.6779 6.42961L13.6779 6.42962L13.6829 6.42539C14.0083 6.15127 14.4403 5.73719 14.6688 5.17202C14.9345 4.51461 14.8681 3.80335 14.4531 3.14289C14.0898 2.55686 13.5582 2.17294 12.9424 2.01572C12.3498 1.86443 11.755 1.94058 11.2417 2.12224C10.5678 2.35859 9.72 2.70104 9.03401 3.2951L9.03283 3.29612C8.0866 4.1178 7.01471 5.05535 6.19417 6.19476C2.63721 11.0875 1.46038 16.6121 1.97123 22.4779C2.17062 24.7932 2.93829 27.0052 4.52325 28.8724C5.48738 30.0092 6.62772 30.8532 7.94589 31.2957C9.26931 31.74 10.6961 31.7538 12.1841 31.3479C16.5844 30.1511 18.6815 26.7896 19.7899 23.0216L19.7903 23.02C20.2384 21.4887 20.2663 19.9897 19.8319 18.5925C19.3978 17.1962 18.5255 15.9771 17.2943 14.9668C16.0631 13.9544 14.7042 13.302 13.2392 13.0954Z" fill="#E32824" stroke="black" stroke-width="2.28508"/>
</svg>
