<svg width="695" height="212" viewBox="0 0 695 212" fill="none" xmlns="http://www.w3.org/2000/svg">
<path d="M20.3402 124.717C20.3402 123.547 20.4077 122.378 20.3252 121.223C20.1002 117.915 18.4277 115.327 16.0127 113.197C14.1152 111.517 11.6702 110.865 9.42016 109.83C6.98266 108.712 4.37266 107.925 2.22766 106.222C1.89016 105.96 1.60516 105.63 1.28266 105.352C0.202658 104.422 0.930158 103.222 1.83016 102.862C2.25016 102.69 2.70016 102.607 3.17266 102.6C5.53516 102.57 7.89766 102.488 10.2602 102.472C11.5577 102.465 12.8177 102.232 14.0852 102C15.8177 101.685 16.6952 100.635 16.9727 98.9175C17.5577 95.2875 18.1877 91.665 18.8327 88.0425C18.9902 87.1725 19.1927 86.31 20.0627 85.7775C20.6777 85.4025 21.0902 85.53 21.4427 86.0925C22.0052 86.9925 22.2377 88.0125 22.4852 89.0175C23.3327 92.4975 24.5252 95.8575 25.8752 99.1725C26.7677 101.362 28.3952 102.615 30.6227 103.207C33.7427 104.032 36.6902 105.292 39.5702 106.725C39.9002 106.89 40.2227 107.077 40.5002 107.31C41.6552 108.3 41.3777 110.025 39.9602 110.587C38.4677 111.18 36.8702 111.345 35.3027 111.615C30.4352 112.448 30.2627 113.077 28.7852 117.487C27.8402 120.3 26.7527 123.037 24.9902 125.475C24.1727 126.608 23.5802 127.905 22.8152 129.082C22.4102 129.697 21.9827 130.56 21.0602 130.297C20.0552 130.012 20.1377 129.052 20.1377 128.212C20.1377 127.05 20.1377 125.88 20.1377 124.717C20.2052 124.717 20.2727 124.717 20.3402 124.717ZM20.2502 87.225C19.8452 87.525 19.9352 87.885 19.9427 88.2075C20.0327 91.8375 19.7852 95.4375 19.1927 99.0225C18.6527 102.292 17.5052 103.5 14.2577 104.182C14.0177 104.235 13.7777 104.287 13.5377 104.317C10.5452 104.685 7.54516 104.685 4.53766 104.745C4.02016 104.752 3.48766 104.587 2.84266 104.902C4.77016 106.357 6.65266 107.647 8.85016 108.375C11.0477 109.102 13.3652 109.425 15.4577 110.52C19.9877 112.897 22.3202 116.64 22.5002 121.717C22.5602 123.465 22.4252 125.212 22.3877 126.96C22.3877 127.267 22.2827 127.59 22.5602 127.973C23.5577 126.038 24.7427 124.32 25.5077 122.377C26.5352 119.775 26.8802 116.985 27.6977 114.322C28.1852 112.747 28.9727 111.397 30.5327 110.67C31.8602 110.055 33.2552 109.62 34.7177 109.402C36.1727 109.185 37.6577 109.245 39.0827 108.787C39.5627 108.63 39.6677 108.405 39.3002 108.112C38.7377 107.662 38.2277 107.085 37.5077 106.875C34.8377 106.102 32.1602 105.323 29.4752 104.618C26.8727 103.935 25.0202 102.458 23.9627 99.9525C22.5752 96.675 21.4727 93.315 20.8352 89.805C20.6777 88.95 20.4677 88.1025 20.2727 87.2175L20.2502 87.225Z" fill="black"/>
<path d="M76.7773 177.893C74.5423 177.75 72.3073 177.6 70.0723 177.458C69.9823 177.458 69.8848 177.45 69.7948 177.45C67.4998 177.42 67.3423 177.465 66.5473 179.573C65.8723 181.373 65.3473 183.233 64.7473 185.063C64.5223 185.745 64.4323 186.608 63.4948 186.668C62.5873 186.72 61.7473 186.57 61.0798 185.738C59.5273 183.803 58.4623 181.62 57.4573 179.378C56.4823 177.203 54.9673 175.485 53.0023 174.113C50.6848 172.493 48.5023 170.7 46.7698 168.435C46.0423 167.483 45.4723 166.328 46.0948 165.203C46.7623 164.003 48.0898 163.868 49.3573 164.063C51.8548 164.438 54.3448 164.715 56.8723 164.37C58.2673 164.183 59.3998 163.74 60.3523 162.503C63.0673 159 66.0898 155.79 70.0648 153.645C70.9648 153.158 72.1498 153.203 72.9148 153.803C73.2898 154.095 73.1473 154.44 73.0573 154.8C72.4273 157.253 71.3848 159.495 69.9223 161.565C68.9473 162.945 68.1748 164.423 67.9348 166.14C67.7098 167.745 68.1448 169.088 69.2923 170.243C71.0023 171.968 73.1998 172.973 75.2023 174.263C75.7723 174.63 76.3273 174.998 76.8823 175.38C77.2423 175.628 77.5273 175.95 77.7373 176.333C78.3073 177.398 77.9623 177.945 76.7623 177.885L76.7773 177.893ZM47.4898 165.945C47.3923 165.975 47.0473 165.78 46.8823 166.065C46.7323 166.32 46.9048 166.598 47.0548 166.838C47.4898 167.543 47.9473 168.233 48.5623 168.803C50.1898 170.303 51.8923 171.713 53.8648 172.733C56.2723 173.978 58.0123 175.815 59.1148 178.305C59.8573 179.978 60.4723 181.71 61.4923 183.248C61.8373 183.765 62.0623 184.718 62.6248 184.628C63.2773 184.523 63.2548 183.555 63.4123 182.918C63.8923 181.043 64.6348 179.273 65.5423 177.57C65.9698 176.768 66.5998 176.378 67.5298 176.385C69.0373 176.408 70.5373 176.445 72.0298 176.64C73.4248 176.828 74.8198 177.045 76.2148 177.233C76.4473 177.263 76.7848 177.323 76.8748 177.068C76.9798 176.768 76.6873 176.573 76.4473 176.453C75.9223 176.205 75.3823 175.988 74.8423 175.77C72.8548 174.975 70.8223 174.263 69.0823 172.958C66.7873 171.24 65.2873 169.14 65.7523 166.073C65.9548 164.73 66.3598 163.47 67.0048 162.278C68.4223 159.645 70.5298 157.493 72.0448 154.928C72.2023 154.665 72.6373 154.425 72.2473 154.073C71.9323 153.788 71.5198 153.713 71.1523 154.028C70.7323 154.388 70.3198 154.748 69.9448 155.153C67.0123 158.325 63.9823 161.423 61.1623 164.708C60.3748 165.623 59.4223 166.245 58.1848 166.35C56.4748 166.485 54.7573 166.628 53.0398 166.463C51.2398 166.298 49.4398 166.125 47.4748 165.938L47.4898 165.945Z" fill="black"/>
<path d="M41.6775 136.448C40.7025 136.223 40.23 135.608 39.63 135.225C36.75 133.403 34.7025 130.86 33.3225 127.77C33.0975 127.268 32.6475 126.525 33.225 126.195C33.765 125.888 34.125 126.66 34.41 127.088C36.405 130.148 39.09 132.66 41.13 135.683C41.265 135.885 41.415 136.073 41.6925 136.44L41.6775 136.448Z" fill="black"/>
<path d="M53.0701 180.667C53.2651 180.9 53.1751 181.185 53.0401 181.342C51.6751 183.022 50.3626 184.732 49.1626 186.682C48.9526 184.755 51.2026 181.695 53.0626 180.667H53.0701Z" fill="black"/>
<path d="M45.6227 157.657C46.3427 158.152 46.5752 158.842 46.9277 159.42C47.3402 160.102 47.7527 160.77 48.4202 161.235C48.6227 161.377 48.8627 161.527 48.6827 161.812C48.5027 162.097 48.2627 161.955 48.0452 161.835C47.0477 161.257 45.6977 159.015 45.6152 157.65L45.6227 157.657Z" fill="black"/>
<path d="M7.26767 124.897C6.24017 126.382 4.80017 127.38 3.33767 128.355C3.21767 128.437 3.05267 128.52 2.95517 128.325C2.87267 128.167 2.95517 128.017 3.07517 127.92C4.40267 126.825 5.61767 125.572 7.27517 124.905L7.26767 124.897Z" fill="black"/>
<path d="M57.6902 154.965C57.3752 154.125 57.4952 153.27 57.6302 152.422C57.7502 153.27 57.7727 154.117 57.6902 154.965Z" fill="black"/>
<path d="M57.36 158.835C57.525 158.835 57.6825 158.835 57.8475 158.843C57.915 159.255 57.9525 159.66 57.765 160.14C57.495 159.69 57.3375 159.293 57.36 158.828V158.835Z" fill="black"/>
<path d="M20.2498 87.2251C20.4448 88.1101 20.6548 88.9576 20.8123 89.8126C21.4573 93.3226 22.5523 96.6826 23.9398 99.9601C25.0048 102.465 26.8498 103.943 29.4523 104.625C32.1448 105.33 34.8148 106.11 37.4848 106.883C38.2048 107.093 38.7073 107.67 39.2773 108.12C39.6448 108.413 39.5398 108.645 39.0598 108.795C37.6348 109.253 36.1498 109.193 34.6948 109.41C33.2323 109.628 31.8373 110.055 30.5098 110.678C28.9498 111.398 28.1623 112.755 27.6748 114.33C26.8498 116.993 26.5123 119.783 25.4848 122.385C24.7198 124.328 23.5273 126.045 22.5373 127.98C22.2598 127.598 22.3573 127.268 22.3648 126.968C22.4023 125.22 22.5373 123.465 22.4773 121.725C22.2973 116.648 19.9648 112.913 15.4348 110.528C13.3423 109.425 11.0248 109.11 8.82732 108.383C6.62982 107.655 4.74732 106.365 2.81982 104.91C3.46482 104.595 3.99732 104.768 4.51482 104.753C7.52232 104.693 10.5223 104.693 13.5148 104.325C13.7548 104.295 13.9948 104.243 14.2348 104.19C17.4823 103.508 18.6298 102.3 19.1698 99.0301C19.7623 95.4526 20.0098 91.8451 19.9198 88.2151C19.9123 87.8926 19.8223 87.5251 20.2273 87.2326L20.2498 87.2251Z" fill="#FBB95E"/>
<path d="M47.4901 165.945C49.4551 166.132 51.2551 166.305 53.0551 166.47C54.7726 166.627 56.4901 166.492 58.2001 166.357C59.4376 166.26 60.3901 165.637 61.1776 164.715C63.9976 161.43 67.0201 158.34 69.9601 155.16C70.3351 154.755 70.7551 154.395 71.1676 154.035C71.5276 153.72 71.9476 153.795 72.2626 154.08C72.6526 154.425 72.2176 154.672 72.0601 154.935C70.5451 157.5 68.4376 159.652 67.0201 162.285C66.3751 163.477 65.9701 164.737 65.7676 166.08C65.3026 169.147 66.8026 171.247 69.0976 172.965C70.8376 174.27 72.8701 174.982 74.8576 175.777C75.3976 175.995 75.9376 176.205 76.4626 176.46C76.7026 176.572 76.9951 176.767 76.8901 177.075C76.8001 177.337 76.4551 177.277 76.2301 177.24C74.8351 177.052 73.4401 176.827 72.0451 176.647C70.5526 176.452 69.0526 176.407 67.5451 176.392C66.6151 176.377 65.9851 176.767 65.5576 177.577C64.6501 179.28 63.9076 181.05 63.4276 182.925C63.2626 183.562 63.2926 184.53 62.6401 184.635C62.0776 184.725 61.8526 183.772 61.5076 183.255C60.4876 181.717 59.8726 179.985 59.1301 178.312C58.0276 175.822 56.2951 173.985 53.8801 172.74C51.9001 171.72 50.2051 170.31 48.5776 168.81C47.9626 168.24 47.5051 167.55 47.0701 166.845C46.9201 166.605 46.7476 166.327 46.8976 166.072C47.0626 165.787 47.4076 165.982 47.5051 165.952L47.4901 165.945Z" fill="white"/>
<g clip-path="url(#clip0_331_12193)">
<path d="M636.675 35.6325C634.605 34.3875 632.355 33.435 630.457 31.8975C630.15 31.65 629.82 31.4175 629.527 31.1475C628.83 30.51 628.912 30.075 629.775 29.6475C630.225 29.4225 630.72 29.355 631.207 29.355C634.027 29.325 636.84 29.085 639.66 29.385C640.342 29.46 640.515 28.8375 640.755 28.4325C641.692 26.8425 642.652 25.275 643.785 23.82C646.665 20.115 647.827 15.72 648.922 11.295C649.305 9.74999 649.642 8.19749 650.34 6.74999C650.377 6.66749 650.4 6.56999 650.452 6.49499C650.902 5.84249 651.285 5.03999 652.245 5.12999C653.227 5.22749 653.422 6.10499 653.655 6.85499C654.51 9.61499 654.697 12.4575 654.532 15.3225C654.292 19.5 654.48 23.67 654.81 27.8325C654.937 29.475 655.702 30.6225 657.24 31.425C659.94 32.835 662.88 33.5475 665.677 34.665C666.81 35.115 667.927 35.61 668.835 36.495C669.525 37.17 669.427 37.9425 669.255 38.715C669.097 39.4125 668.422 39.255 667.95 39.3075C665.205 39.6075 662.46 39.9525 659.707 40.095C656.655 40.245 654.9 42 653.745 44.5575C652.927 46.3575 652.065 48.135 651.502 50.0475C651.262 50.85 650.76 51.525 649.837 51.5325C648.96 51.5475 648.592 50.8425 648.337 50.1225C647.302 47.2275 646.68 44.22 645.997 41.235C645.57 39.3675 644.467 38.235 642.75 37.575C641.775 37.2075 640.762 36.96 639.757 36.6975C639.193 36.5502 638 36.5 636.675 35.6325ZM649.822 49.53C650.152 49.26 650.212 49.02 650.25 48.78C650.572 46.7625 651.427 44.9325 652.23 43.08C653.49 40.17 655.59 38.4375 658.912 38.325C661.402 38.2425 663.877 38.31 666.36 38.445C666.907 38.475 667.462 38.475 668.01 38.46C668.332 38.4525 668.617 38.3325 668.677 37.95C668.737 37.5375 668.512 37.32 668.152 37.2C667.282 36.9075 666.412 36.6 665.535 36.3225C662.265 35.3175 658.942 34.4775 655.875 32.895C654.255 32.0625 653.235 30.8475 652.942 29.0475C652.582 26.835 652.627 24.585 652.417 22.35C652.027 18.1725 652.545 14.0175 652.71 9.84749C652.755 8.80499 652.8 7.76249 652.605 6.72749C652.575 6.55499 652.582 6.32249 652.365 6.27749C652.095 6.21749 652.005 6.45749 651.915 6.64499C651.495 7.57499 651.27 8.55749 651.112 9.56249C650.527 13.185 649.747 16.7625 648.375 20.1825C646.83 24.03 643.83 26.895 641.572 30.2625C641.235 30.765 640.71 31.0575 639.997 30.99C637.342 30.75 634.672 30.7875 632.01 30.78C631.582 30.78 631.125 30.705 630.675 30.96C632.775 32.67 634.972 33.9 637.65 34.3425C639.54 34.6575 641.505 34.68 643.327 35.4C645.375 36.21 647.212 37.29 647.775 39.6375C648.165 41.2725 648.42 42.945 648.757 44.595C649.087 46.2075 649.447 47.8125 649.815 49.5225L649.822 49.53Z" fill="black"/>
<path d="M664.312 22.125C664.965 21.45 665.873 21.5925 666.668 21.3C667.688 20.9175 668.745 20.595 669.78 20.2275C673.215 19.0125 676.785 18.21 680.152 16.7925C683.73 15.285 686.932 13.1475 690.157 11.0325C691.455 10.185 692.715 9.27754 694.388 8.60254C686.108 17.3925 675.51 20.445 664.312 22.125Z" fill="#ED1523"/>
<path d="M641.078 0C641.22 1.6275 641.235 3.15 641.115 4.665C640.598 11.055 640.103 17.4525 639.188 23.7975C639.038 24.825 639.008 25.8675 639.098 26.9175C639.18 27.8925 638.348 27.45 637.898 27.51C637.44 27.57 637.185 27.39 637.26 26.805C637.725 23.28 638.115 19.7475 638.595 16.2225C639.285 11.175 639.428 6.0675 640.38 1.0575C640.455 0.675 640.508 0.2775 641.07 0.0075L641.078 0Z" fill="black"/>
<path d="M681.495 31.0273C676.62 30.8548 671.872 31.2523 667.087 30.7048C667.222 30.2248 667.635 30.2548 667.965 30.2098C670.807 29.8273 673.657 29.8048 676.5 30.0748C677.962 30.2173 679.44 30.2848 680.88 30.6223C681.052 30.6598 681.247 30.6523 681.502 31.0198L681.495 31.0273Z" fill="black"/>
<path d="M661.777 14.8948C663.075 13.6123 664.5 12.6598 665.812 11.5723C667.867 9.8698 669.735 7.9873 671.272 5.7973C671.415 5.5948 671.572 5.2798 671.82 5.4298C672.12 5.6098 671.917 5.9098 671.767 6.1423C670.447 8.2198 668.865 10.0648 666.967 11.6548C665.61 12.7873 664.095 13.6798 662.692 14.7448C662.467 14.9098 662.212 15.0073 661.777 14.9023V14.8948Z" fill="#ED1523"/>
<path d="M658.575 65.6026C657.525 63.1051 657.263 60.4126 656.633 57.8176C656.483 57.1951 656.393 56.5576 656.288 55.9276C656.258 55.7401 656.288 55.5226 656.498 55.4701C656.723 55.4176 656.783 55.6276 656.843 55.8076C657.653 58.3426 658.275 60.9226 658.523 63.5776C658.583 64.2226 658.943 64.8526 658.688 65.5276C658.575 65.4376 658.605 65.5576 658.583 65.6026H658.575Z" fill="black"/>
<path d="M658.575 65.6027C658.597 65.5577 658.575 65.4377 658.68 65.5277C658.83 65.6177 658.71 65.6927 658.665 65.7752C658.635 65.7152 658.597 65.6627 658.567 65.6027H658.575Z" fill="#ED1523"/>
<path d="M649.823 49.53C649.455 47.82 649.095 46.215 648.765 44.6025C648.428 42.9525 648.18 41.28 647.783 39.645C647.22 37.305 645.383 36.225 643.335 35.4075C641.52 34.6875 639.555 34.665 637.658 34.35C634.98 33.9075 632.783 32.6775 630.683 30.9675C631.133 30.705 631.59 30.78 632.018 30.7875C634.68 30.8025 637.35 30.7575 640.005 30.9975C640.725 31.065 641.243 30.7725 641.58 30.27C643.838 26.9025 646.838 24.0375 648.383 20.19C649.755 16.77 650.543 13.1925 651.12 9.57001C651.278 8.57251 651.503 7.58251 651.923 6.65251C652.013 6.45751 652.103 6.22501 652.373 6.28501C652.59 6.33001 652.583 6.56251 652.613 6.73501C652.808 7.77001 652.755 8.80501 652.718 9.85501C652.553 14.0175 652.035 18.18 652.425 22.3575C652.635 24.585 652.583 26.835 652.95 29.055C653.243 30.855 654.263 32.07 655.883 32.9025C658.958 34.485 662.28 35.325 665.543 36.33C666.42 36.6 667.29 36.915 668.16 37.2075C668.52 37.3275 668.745 37.545 668.685 37.9575C668.625 38.34 668.34 38.46 668.018 38.4675C667.47 38.4825 666.915 38.4825 666.368 38.4525C663.885 38.3175 661.41 38.25 658.92 38.3325C655.598 38.445 653.498 40.17 652.238 43.0875C651.443 44.9325 650.58 46.77 650.258 48.7875C650.22 49.0275 650.16 49.275 649.83 49.5375L649.823 49.53Z" fill="#FBB95E"/>
</g>
<defs>
<clipPath id="clip0_331_12193">
<rect width="105" height="207" fill="white" transform="translate(589.5)"/>
</clipPath>
</defs>
</svg>
