<svg width="24" height="26" viewBox="0 0 24 26" fill="none" xmlns="http://www.w3.org/2000/svg">
<g clip-path="url(#clip0_331_9962)">
<path d="M10.1014 5.9646L10.1022 5.96339C10.9049 4.7001 11.4654 3.30821 11.9846 2.01893C12.1068 1.71529 12.2268 1.41734 12.3471 1.12811C12.3511 1.1231 12.368 1.10249 12.4111 1.07622C12.4169 1.0727 12.4227 1.06934 12.4286 1.06614C12.5235 1.29543 12.5992 1.53762 12.6784 1.81556C12.6978 1.88377 12.7178 1.95575 12.7387 2.03073C12.8191 2.31983 12.912 2.65348 13.0301 2.98691L13.0301 2.98692L13.0318 2.99179C14.4616 6.96198 17.6134 9.60306 21.371 11.6494L21.3744 11.6513C21.5396 11.7404 21.6318 11.9 21.6301 12.11C21.6284 12.3291 21.5202 12.544 21.3205 12.6696C20.1364 13.4139 18.9516 14.1755 17.9408 15.1015C16.3584 16.55 15.0615 18.2643 14.0274 19.9832L14.0258 19.9859C13.3056 21.1914 12.7973 22.4801 12.2879 23.7716C12.2628 23.8353 12.2377 23.8989 12.2125 23.9626C12.1982 23.999 12.1725 24.0357 12.1332 24.0684C12.0924 24.1023 12.0454 24.1245 12.0036 24.1342C11.9833 24.139 11.9685 24.1399 11.9591 24.1397C11.2953 23.2529 10.6703 22.3396 10.0698 21.4095L10.0673 21.4056C8.1142 18.4104 5.60758 15.7522 1.7914 14.1698C1.9255 14.0764 2.06049 13.9827 2.19607 13.8887C3.43864 13.0266 4.73012 12.1306 5.82965 11.0888L5.83039 11.0881C7.46306 9.53789 8.92733 7.80665 10.1014 5.9646Z" fill="#DD2935" stroke="black" stroke-width="2"/>
</g>
<defs>
<clipPath id="clip0_331_9962">
<rect width="24" height="26" fill="white"/>
</clipPath>
</defs>
</svg>
