<svg width="76" height="89" viewBox="0 0 76 89" fill="none" xmlns="http://www.w3.org/2000/svg">
<g clip-path="url(#clip0_331_7816)">
<path d="M39.2029 64.5531C39.2169 64.6632 39.2261 64.7747 39.24 64.8848C39.1627 65.1178 39.2016 65.3403 39.3059 65.5556L39.3575 65.8834C39.3104 66.1134 39.3191 66.3389 39.4234 66.5542L39.5327 67.2134C39.4345 67.5037 39.5227 67.7751 39.6158 68.0452C39.6631 68.2603 39.7068 68.4815 39.7541 68.6966C39.9433 70.6389 40.2763 72.558 40.648 74.4669C40.6905 74.6833 40.7391 74.9032 40.7815 75.1196C40.7294 75.4079 40.7716 75.6813 40.8949 75.9485C40.8591 76.1237 40.8837 76.2931 40.976 76.4444C40.8631 76.7956 40.9801 77.1162 41.0922 77.4382C41.1204 77.6014 41.1438 77.766 41.172 77.9292C41.0962 78.11 41.1402 78.2742 41.2303 78.4364C41.2298 78.5505 41.2341 78.6632 41.2336 78.7772C41.1262 78.9561 41.1957 79.1186 41.2664 79.286C41.2751 79.8014 41.2899 80.3202 41.2985 80.8355C41.1622 81.312 41.0198 81.785 40.8931 82.259C40.8316 82.4929 40.7329 82.6849 40.485 82.7255C40.2129 82.7725 40.2145 82.5081 40.127 82.3555C39.477 81.2046 38.8269 80.0536 38.1721 78.9039C36.1213 75.3071 34.085 71.7065 32.2926 67.9732C31.1212 65.5332 29.9414 63.1007 28.7665 60.6668C28.637 60.3961 28.5409 60.0181 28.1387 60.3329C27.5076 60.8178 26.7085 61.0423 26.1633 61.6542C25.7958 61.8666 25.3834 62.0082 25.1055 62.3621C24.7604 62.465 24.4688 62.6518 24.2382 62.931C24.0565 62.9486 23.9372 63.0634 23.8204 63.1879C23.3947 63.2605 23.1165 63.5939 22.7831 63.8178C21.3835 64.757 19.9181 65.6052 18.6031 66.6668C18.3902 66.7031 18.1948 66.7658 18.0929 66.9846C16.9321 67.6943 15.7676 68.41 14.5263 69.1671C14.6155 66.467 14.9145 63.9126 15.1869 61.3549C16.0088 53.5461 16.946 45.7427 16.5649 37.868C16.2688 31.7978 15.8818 25.7364 15.2913 19.6882C15.0304 17.0146 14.6475 14.3685 13.9996 11.7572C13.9387 11.5302 13.7748 11.2274 14.077 11.0998C14.3371 10.9887 14.43 11.3158 14.5503 11.4751C17.5722 15.4121 19.9936 19.6964 22.0152 24.2275C23.6474 27.8847 25.353 31.5067 26.8731 35.2094C29.0231 40.4516 31.0647 45.7332 32.9568 51.0755C33.0014 51.2033 33.0196 51.3485 33.2014 51.4085C35.0181 49.7467 37.0456 48.3493 39.1875 47.1283C39.5564 46.9208 39.8542 46.313 40.2629 46.5245C40.7241 46.7581 40.2097 47.3307 40.3465 47.7444C40.3607 47.7975 40.3846 47.848 40.4037 47.8999C40.3967 47.9897 40.391 48.0844 40.384 48.1743C40.1718 48.4641 40.2269 48.7858 40.2602 49.103L40.2672 49.0908C40.0447 49.9217 39.9655 50.7659 39.9727 51.6233L39.9299 51.6762L39.9612 51.7351C39.7931 51.9768 39.7647 52.2381 39.8591 52.513C39.7499 52.8011 39.6456 53.0879 39.7455 53.4027C39.7257 53.5219 39.7023 53.6472 39.6825 53.7664C39.5422 53.9386 39.584 54.1138 39.6622 54.2895C39.4639 54.6895 39.4844 55.1136 39.5049 55.5378C39.3511 55.698 39.3735 55.8784 39.4591 56.0625C39.2278 56.5127 39.3414 56.9947 39.313 57.4682C39.1615 57.6951 39.203 57.9273 39.3016 58.1597C39.1081 58.5584 39.1418 58.9738 39.1926 59.395C39.046 59.6207 39.0414 59.8548 39.1473 60.0956C39.1275 60.2148 39.1125 60.3327 39.0927 60.4519C38.9364 60.6801 39.0301 60.9138 39.0813 61.1434C38.9021 61.885 39.0093 62.6328 39.0547 63.3816C39.0907 63.6514 39.1281 63.9261 39.1642 64.196C39.0873 64.3149 39.1087 64.4334 39.1762 64.5499L39.2029 64.5531ZM37.844 50.5372C37.7962 50.3585 37.6811 50.2962 37.4796 50.3554C37.1586 50.4517 36.8824 50.6189 36.6031 50.8128C35.4726 51.5971 34.5501 52.6363 33.3576 53.344C32.5314 53.8346 32.3881 53.8212 31.8898 52.9661C30.9819 51.4131 30.3123 49.7446 29.6368 48.0931C27.7458 43.47 25.991 38.7949 24.0579 34.1883C22.3343 30.0742 20.4518 26.0234 18.6391 21.9435C18.392 21.3886 18.1594 20.8297 17.9124 20.2748C17.8468 20.1267 17.7423 19.9683 17.5359 20.0288C17.3247 20.0906 17.3594 20.278 17.3766 20.439C17.4569 21.3182 17.5517 22.1935 17.6162 23.0717C17.8615 26.4793 18.1007 29.8834 18.3302 33.2901C18.7483 39.4674 18.4796 45.632 17.9282 51.7843C17.53 56.2288 17.0309 60.6641 16.4407 65.0876C16.4202 65.2432 16.3964 65.4825 16.4837 65.5575C16.6449 65.6955 16.8503 65.5731 17.0047 65.4541C18.406 64.3281 19.9554 63.4263 21.4264 62.4058C23.5938 60.8933 25.7774 59.4024 28.1377 58.185C29.0335 57.7224 29.2413 57.7444 29.8172 58.5994C30.1418 59.0767 30.4593 59.5662 30.7118 60.0835C31.3762 61.4428 31.9998 62.8235 32.6546 64.1854C33.571 66.0984 34.4957 68.004 35.4349 69.9057C36.2159 71.4875 37.0281 73.0505 37.8271 74.6223C37.915 74.7955 38.0263 74.9986 38.2581 74.9364C38.5383 74.8614 38.4008 74.6187 38.3761 74.4493C38.1185 72.6186 37.8161 70.7947 37.5984 68.9585C37.3043 66.4698 36.9255 63.9935 36.8928 61.4762C36.8563 58.6545 37.1721 55.8729 37.5547 53.0891C37.6702 52.2454 37.7433 51.3976 37.8379 50.5337L37.844 50.5372Z" fill="black"/>
<path d="M66.1601 64.7218C66.1027 64.6233 66.044 64.52 65.9865 64.4215C65.6849 63.7983 65.3869 63.169 64.9257 62.6456C64.6772 61.9305 64.2185 61.3391 63.8319 60.7076C63.8224 60.5756 63.7685 60.471 63.6402 60.4174C63.5939 60.1865 63.515 59.9695 63.3184 59.8151C63.2659 59.5807 63.1739 59.3724 62.9772 59.2181L62.7477 58.7671C62.6749 58.4761 62.5396 58.2224 62.3023 58.0324C62.2545 57.9313 62.2103 57.8241 62.1625 57.723C61.8675 57.2016 61.5725 56.6802 61.274 56.1649C61.089 55.8417 60.8694 55.8333 60.6378 56.1283C60.2008 56.6802 59.7589 57.2334 59.3218 57.7853C59.2398 57.885 59.1565 57.9798 59.0745 58.0794C58.9326 58.1485 58.8325 58.2581 58.7915 58.414C57.8579 59.2957 57.1038 60.326 56.3166 61.3289C55.6769 62.0904 54.9118 62.751 54.3669 63.5958C54.283 63.727 54.1929 63.8546 54.109 63.9858C53.7668 64.1189 53.7514 63.9263 53.6641 63.6391C53.1723 62.0161 52.989 60.3467 52.825 58.6721C52.8077 58.5111 52.7492 58.3507 52.7065 58.1914C52.6877 58.0825 52.6689 57.9737 52.6501 57.8648C52.5492 55.9041 52.3465 53.95 52.064 52.0069C52.0452 51.8981 52.0264 51.7892 52.0075 51.6804C51.8579 49.9243 51.6925 48.1672 51.5635 46.4108C51.2293 41.8985 50.9095 37.3824 50.5959 32.8698C50.3832 29.8158 50.1547 26.7608 49.7157 23.7312C49.7089 23.6865 49.7468 23.6349 49.7921 23.5141C50.6036 23.954 51.0277 24.7255 51.5136 25.4184C53.8672 28.7736 55.6427 32.4441 57.31 36.1747C59.1689 40.3302 61.0326 44.4844 62.877 48.6437C63.0736 49.088 63.2279 49.1036 63.5635 48.7911C64.73 47.6968 65.8053 46.5132 66.8819 45.3344C67.0463 45.1558 67.1603 44.8664 67.4619 44.9875C67.7232 45.0934 67.6185 45.3596 67.6294 45.5741C67.6501 46.1535 67.6852 46.729 67.7155 47.3058C67.7286 47.4317 67.7416 47.5576 67.7559 47.6884C67.5292 49.5661 67.6616 51.451 67.6738 53.332C67.6924 53.4978 67.7109 53.6637 67.7259 53.8356C67.6124 54.2232 67.6067 54.6078 67.737 54.9973C67.7074 55.0415 67.7142 55.0863 67.75 55.1233C67.6794 56.1153 67.7566 57.0989 67.9307 58.0772C67.9587 58.2974 67.9818 58.519 68.0111 58.7441C68.1123 60.1456 68.2148 61.552 68.316 62.9536C68.2347 63.1721 68.2263 63.3917 68.3161 63.611C68.3278 63.732 68.3396 63.8531 68.3513 63.9742C68.3011 64.0187 68.2983 64.0661 68.338 64.1176C68.1242 64.4596 68.3111 64.8287 68.2674 65.1873C68.152 65.6064 67.9015 66.0048 68.021 66.4698C67.9889 66.5819 67.9533 66.7001 67.9212 66.8123C67.5324 67.0614 67.3827 66.8116 67.2635 66.5019C67.2109 66.1899 66.9688 66.0011 66.7878 65.7701C66.7593 65.5862 66.685 65.4249 66.5219 65.3185C66.4778 65.0767 66.3594 64.8858 66.164 64.7363L66.1601 64.7218ZM65.588 49.025C64.4682 49.8686 63.6419 50.7837 62.8191 51.6926C62.4595 52.0892 62.1756 52.0151 61.9835 51.6266C61.3194 50.2879 60.6624 48.9369 60.0585 47.5717C59.0208 45.2253 58.0337 42.855 57.0057 40.506C55.9122 38.009 54.7993 35.5171 53.6961 33.0226C53.3405 32.2172 52.9801 31.4131 52.6245 30.6077C52.2035 31.6057 52.4488 32.5597 52.5082 33.4962C52.7622 37.709 53.118 41.9153 53.3707 46.1232C53.6492 50.6401 53.8562 55.1605 54.0936 59.678C54.1074 59.9228 54.0717 60.2533 54.313 60.3232C54.5421 60.3861 54.7018 60.0741 54.8945 59.9241C55.9667 59.0571 56.4817 57.7337 57.4971 56.8094C58.4491 55.9383 59.0783 54.7707 60.0386 53.8922C61.2522 52.7802 61.3646 52.7553 62.1657 54.2384C63.2048 56.1652 64.1586 58.1406 65.1352 60.1048C65.3147 60.4656 65.4759 60.8158 65.9402 61.0227C65.7177 57.024 65.4145 53.1298 65.5893 49.0299L65.588 49.025Z" fill="black"/>
<path d="M37.8442 50.5372C37.7496 51.4011 37.6765 52.2489 37.561 53.0926C37.1784 55.8765 36.8687 58.6615 36.8991 61.4797C36.9318 63.997 37.3106 66.4733 37.6048 68.962C37.8224 70.7982 38.1248 72.6221 38.3824 74.4528C38.4071 74.6222 38.5446 74.8649 38.2644 74.94C38.0326 75.0021 37.9213 74.799 37.8334 74.6258C37.0296 73.0553 36.2209 71.4862 35.4412 69.9093C34.502 68.0075 33.5821 66.1006 32.6609 64.1889C32.0048 62.8222 31.3825 61.4463 30.7181 60.087C30.4656 59.5697 30.1481 59.0802 29.8235 58.603C29.2476 57.7479 29.0398 57.7259 28.144 58.1885C25.7885 59.4046 23.605 60.8956 21.4328 62.4093C19.963 63.4347 18.4075 64.3329 17.011 65.4576C16.8579 65.5815 16.6525 65.7038 16.49 65.561C16.4027 65.4861 16.4278 65.2516 16.447 65.0911C17.0372 60.6677 17.5363 56.2324 17.9345 51.7878C18.4859 45.6355 18.7546 39.4709 18.3365 33.2936C18.107 29.8869 17.8665 26.478 17.6225 23.0752C17.558 22.197 17.4668 21.3156 17.3829 20.4425C17.3692 20.2754 17.331 20.0941 17.5422 20.0323C17.7486 19.9719 17.8518 20.1254 17.9187 20.2783C18.1706 20.8319 18.3983 21.3921 18.6454 21.9471C20.4581 26.0269 22.3406 30.0777 24.0642 34.1918C25.9912 38.7949 27.7521 43.4735 29.6431 48.0967C30.3199 49.7529 30.9882 51.4166 31.8961 52.9696C32.3944 53.8248 32.5377 53.8381 33.3639 53.3476C34.5564 52.6398 35.4789 51.6006 36.6094 50.8163C36.8839 50.6237 37.16 50.4565 37.4859 50.3589C37.6839 50.3058 37.8025 50.362 37.8503 50.5407L37.8442 50.5372Z" fill="#DD2935"/>
<path d="M65.5882 49.025C65.4134 53.125 65.7118 57.0205 65.9391 61.0178C65.4748 60.811 65.3136 60.4608 65.1341 60.0999C64.1575 58.1358 63.205 56.1651 62.1646 54.2336C61.3634 52.7504 61.2511 52.7753 60.0375 53.8873C59.0772 54.7658 58.4528 55.9322 57.496 56.8045C56.4854 57.7275 55.9704 59.0509 54.8934 59.9193C54.702 60.0741 54.5423 60.386 54.3119 60.3184C54.0706 60.2484 54.1063 59.9179 54.0924 59.6732C53.8551 55.1557 53.6481 50.6352 53.3696 46.1184C53.1107 41.9069 52.755 37.7006 52.5071 33.4914C52.4525 32.5536 52.2011 31.596 52.6234 30.6028C52.979 31.4083 53.3394 32.2124 53.695 33.0178C54.7982 35.5123 55.911 38.0041 57.0046 40.5012C58.0326 42.8502 59.0197 45.2204 60.0573 47.5668C60.6625 48.9369 61.3135 50.2843 61.9824 51.6218C62.1745 52.0103 62.4584 52.0843 62.818 51.6877C63.6408 50.7788 64.4623 49.8651 65.5869 49.0202L65.5882 49.025Z" fill="#DD2935"/>
</g>
<defs>
<clipPath id="clip0_331_7816">
<rect width="57.48" height="76.03" fill="white" transform="translate(0 14.8769) rotate(-15)"/>
</clipPath>
</defs>
</svg>
